<svg xmlns="http://www.w3.org/2000/svg" xmlns:xlink="http://www.w3.org/1999/xlink" viewBox="0 0 374.28 127.5"><defs><style>.cls-1{fill:none;}.cls-2{fill:url(#Degradado_sin_nombre_589);}.cls-3{fill:url(#Degradado_sin_nombre_482);}.cls-4{fill:url(#Degradado_sin_nombre_589-2);}.cls-5{fill:url(#Degradado_sin_nombre_402);}.cls-6{fill:url(#Degradado_sin_nombre_402-2);}.cls-7{fill:url(#Degradado_sin_nombre_419);}.cls-8{fill:url(#Degradado_sin_nombre_482-2);}.cls-9{fill:url(#Degradado_sin_nombre_478);}.cls-10{fill:url(#Degradado_sin_nombre_503);}.cls-11,.cls-110,.cls-111,.cls-112,.cls-118,.cls-121,.cls-123,.cls-14,.cls-22,.cls-23,.cls-38,.cls-40,.cls-47,.cls-53,.cls-54,.cls-55,.cls-61,.cls-64,.cls-66,.cls-69,.cls-76,.cls-80,.cls-91,.cls-98{mix-blend-mode:multiply;}.cls-11{fill:url(#Degradado_sin_nombre_485);}.cls-12{fill:url(#Degradado_sin_nombre_419-2);}.cls-13{fill:url(#Degradado_sin_nombre_419-3);}.cls-14{fill:url(#Degradado_sin_nombre_485-2);}.cls-15{fill:url(#Degradado_sin_nombre_603);}.cls-16{fill:url(#Degradado_sin_nombre_589-3);}.cls-17{fill:url(#Degradado_sin_nombre_482-3);}.cls-18{fill:url(#Degradado_sin_nombre_478-2);}.cls-19{fill:url(#Degradado_sin_nombre_603-2);}.cls-20{fill:url(#Degradado_sin_nombre_402-3);}.cls-21{fill:url(#Degradado_sin_nombre_419-4);}.cls-22{fill:url(#Degradado_sin_nombre_485-3);}.cls-23{fill:url(#Degradado_sin_nombre_485-4);}.cls-24{fill:url(#Degradado_sin_nombre_402-4);}.cls-25{fill:url(#Degradado_sin_nombre_482-4);}.cls-26{fill:url(#Degradado_sin_nombre_478-3);}.cls-27{fill:url(#Degradado_sin_nombre_503-2);}.cls-28{fill:url(#Degradado_sin_nombre_419-5);}.cls-29{fill:url(#Degradado_sin_nombre_503-3);}.cls-30{fill:url(#Degradado_sin_nombre_603-3);}.cls-31{fill:url(#Degradado_sin_nombre_482-5);}.cls-32{fill:url(#Degradado_sin_nombre_589-4);}.cls-33{fill:url(#Degradado_sin_nombre_402-5);}.cls-34{fill:url(#Degradado_sin_nombre_419-6);}.cls-35{fill:url(#Degradado_sin_nombre_482-6);}.cls-36{fill:url(#Degradado_sin_nombre_419-7);}.cls-37{fill:url(#Degradado_sin_nombre_419-8);}.cls-38{fill:url(#Degradado_sin_nombre_485-5);}.cls-39{fill:url(#Degradado_sin_nombre_402-6);}.cls-40{fill:url(#Degradado_sin_nombre_488);}.cls-41{fill:url(#Degradado_sin_nombre_402-7);}.cls-42{fill:url(#Degradado_sin_nombre_419-9);}.cls-43{fill:url(#Degradado_sin_nombre_482-7);}.cls-44{fill:url(#Degradado_sin_nombre_478-4);}.cls-45{fill:url(#Degradado_sin_nombre_503-4);}.cls-46{fill:url(#Degradado_sin_nombre_419-10);}.cls-47{fill:url(#Degradado_sin_nombre_488-2);}.cls-48{fill:url(#Degradado_sin_nombre_419-11);}.cls-49{fill:url(#Degradado_sin_nombre_603-4);}.cls-50{fill:url(#Degradado_sin_nombre_589-5);}.cls-51{fill:url(#Degradado_sin_nombre_402-8);}.cls-52{fill:url(#Degradado_sin_nombre_419-12);}.cls-53{fill:url(#Degradado_sin_nombre_485-6);}.cls-54{fill:url(#Degradado_sin_nombre_488-3);}.cls-55{fill:url(#Degradado_sin_nombre_485-7);}.cls-56{fill:url(#Degradado_sin_nombre_402-9);}.cls-57{fill:url(#Degradado_sin_nombre_419-13);}.cls-58{fill:url(#Degradado_sin_nombre_482-8);}.cls-59{fill:url(#Degradado_sin_nombre_478-5);}.cls-60{fill:url(#Degradado_sin_nombre_503-5);}.cls-61{fill:url(#Degradado_sin_nombre_485-8);}.cls-62{fill:url(#Degradado_sin_nombre_419-14);}.cls-63{fill:url(#Degradado_sin_nombre_503-6);}.cls-64{fill:url(#Degradado_sin_nombre_488-4);}.cls-65{fill:url(#Degradado_sin_nombre_419-15);}.cls-66{fill:url(#Degradado_sin_nombre_485-9);}.cls-67{fill:url(#Degradado_sin_nombre_402-10);}.cls-68{fill:url(#Degradado_sin_nombre_419-16);}.cls-69{fill:url(#Degradado_sin_nombre_488-5);}.cls-70{fill:url(#Degradado_sin_nombre_402-11);}.cls-71{fill:url(#Degradado_sin_nombre_482-9);}.cls-72{fill:url(#Degradado_sin_nombre_478-6);}.cls-73{fill:url(#Degradado_sin_nombre_503-7);}.cls-74{fill:url(#Degradado_sin_nombre_419-17);}.cls-75{fill:url(#Degradado_sin_nombre_503-8);}.cls-76{fill:url(#Degradado_sin_nombre_488-6);}.cls-77{fill:url(#Degradado_sin_nombre_603-5);}.cls-78{fill:url(#Degradado_sin_nombre_402-12);}.cls-79{fill:url(#Degradado_sin_nombre_419-18);}.cls-80{fill:url(#Degradado_sin_nombre_485-10);}.cls-81{fill:url(#Degradado_sin_nombre_482-10);}.cls-82{fill:url(#Degradado_sin_nombre_503-9);}.cls-83{fill:url(#Degradado_sin_nombre_503-10);}.cls-84{fill:url(#Degradado_sin_nombre_402-13);}.cls-85{fill:url(#Degradado_sin_nombre_419-19);}.cls-86{fill:url(#Degradado_sin_nombre_482-11);}.cls-87{fill:url(#Degradado_sin_nombre_419-20);}.cls-88{fill:url(#Degradado_sin_nombre_419-21);}.cls-89{fill:url(#Degradado_sin_nombre_402-14);}.cls-90{fill:url(#Degradado_sin_nombre_419-22);}.cls-91{fill:url(#Degradado_sin_nombre_488-7);}.cls-92{fill:url(#Degradado_sin_nombre_402-15);}.cls-93{fill:url(#Degradado_sin_nombre_419-23);}.cls-94{fill:url(#Degradado_sin_nombre_482-12);}.cls-95{fill:url(#Degradado_sin_nombre_503-11);}.cls-96{fill:url(#Degradado_sin_nombre_419-24);}.cls-97{fill:url(#Degradado_sin_nombre_503-12);}.cls-98{fill:url(#Degradado_sin_nombre_488-8);}.cls-99{fill:url(#Degradado_sin_nombre_419-25);}.cls-100{fill:url(#Degradado_sin_nombre_402-16);}.cls-101{fill:url(#Degradado_sin_nombre_419-26);}.cls-102{fill:url(#Degradado_sin_nombre_482-13);}.cls-103{fill:url(#Degradado_sin_nombre_503-13);}.cls-104{fill:url(#Degradado_sin_nombre_503-14);}.cls-105{isolation:isolate;}.cls-106{fill:url(#Degradado_sin_nombre_603-6);}.cls-107{fill:url(#Degradado_sin_nombre_589-6);}.cls-108{fill:url(#Degradado_sin_nombre_402-17);}.cls-109{fill:url(#Degradado_sin_nombre_419-27);}.cls-110{fill:url(#Degradado_sin_nombre_485-11);}.cls-111{fill:url(#Degradado_sin_nombre_488-9);}.cls-112{fill:url(#Degradado_sin_nombre_485-12);}.cls-113{fill:url(#Degradado_sin_nombre_402-18);}.cls-114{fill:url(#Degradado_sin_nombre_419-28);}.cls-115{fill:url(#Degradado_sin_nombre_482-14);}.cls-116{fill:url(#Degradado_sin_nombre_478-7);}.cls-117{fill:url(#Degradado_sin_nombre_503-15);}.cls-118{fill:url(#Degradado_sin_nombre_485-13);}.cls-119{fill:url(#Degradado_sin_nombre_419-29);}.cls-120{fill:url(#Degradado_sin_nombre_503-16);}.cls-121{fill:url(#Degradado_sin_nombre_488-10);}.cls-122{fill:url(#Degradado_sin_nombre_419-30);}.cls-123{fill:url(#Degradado_sin_nombre_485-14);}.cls-124{font-size:75.74px;font-family:Montserrat-ExtraBold, Montserrat;font-weight:800;letter-spacing:0.1em;fill:url(#New_Pattern);}.cls-125{letter-spacing:0.09em;}.cls-126{letter-spacing:0.1em;}.cls-127{font-size:9.83px;fill:#f1f2f2;font-family:Montserrat-SemiBold, Montserrat;font-weight:600;letter-spacing:0.08em;}.cls-128{letter-spacing:0.1em;}.cls-129{letter-spacing:0.07em;}.cls-130{letter-spacing:0.1em;}.cls-131{letter-spacing:0.1em;}.cls-132{letter-spacing:0.06em;}.cls-133{letter-spacing:0.1em;}.cls-134{letter-spacing:0.09em;}</style><linearGradient id="Degradado_sin_nombre_589" x1="44266.1" y1="-13931.02" x2="44266.1" y2="-13878.67" gradientTransform="translate(32786.58 -32795.56) rotate(152.27)" gradientUnits="userSpaceOnUse"><stop offset="0" stop-color="#ef3a4b"/><stop offset="0.03" stop-color="#ef3d49" stop-opacity="0"/><stop offset="0.13" stop-color="#ef4148" stop-opacity="0.02"/><stop offset="0.25" stop-color="#f04b44" stop-opacity="0.08"/><stop offset="0.38" stop-color="#f15c3f" stop-opacity="0.17"/><stop offset="0.52" stop-color="#f37437" stop-opacity="0.31"/><stop offset="0.66" stop-color="#f6922c" stop-opacity="0.48"/><stop offset="0.81" stop-color="#f9b720" stop-opacity="0.69"/><stop offset="0.96" stop-color="#fce311" stop-opacity="0.94"/><stop offset="1" stop-color="#fdee0d"/></linearGradient><linearGradient id="Degradado_sin_nombre_482" x1="38440.48" y1="10026.8" x2="38440.48" y2="10156.63" gradientTransform="matrix(-1, 0, 0, 1, 38551, -9955.08)" gradientUnits="userSpaceOnUse"><stop offset="0" stop-color="#48bc8f"/><stop offset="0.16" stop-color="#47b591"/><stop offset="0.4" stop-color="#43a195"/><stop offset="0.68" stop-color="#3d819c"/><stop offset="1" stop-color="#3554a5"/></linearGradient><linearGradient id="Degradado_sin_nombre_589-2" x1="44277.86" y1="-13874.35" x2="44277.86" y2="-13822" xlink:href="#Degradado_sin_nombre_589"/><linearGradient id="Degradado_sin_nombre_402" x1="22932.48" y1="23281.76" x2="22932.48" y2="23412.6" gradientTransform="matrix(-0.84, -0.54, -0.54, 0.84, 32026.68, -7161.12)" gradientUnits="userSpaceOnUse"><stop offset="0" stop-color="#fdee0d"/><stop offset="0.11" stop-color="#fce311"/><stop offset="0.31" stop-color="#fac51b"/><stop offset="0.58" stop-color="#f6952c"/><stop offset="0.89" stop-color="#f15342"/><stop offset="1" stop-color="#ef3a4b"/></linearGradient><linearGradient id="Degradado_sin_nombre_402-2" x1="-28313.44" y1="-9632.1" x2="-28313.44" y2="-9501.26" gradientTransform="matrix(0.84, -0.54, 0.54, 0.84, 29025.82, -7161.12)" xlink:href="#Degradado_sin_nombre_402"/><linearGradient id="Degradado_sin_nombre_419" x1="44540.1" y1="-10709.07" x2="44540.1" y2="-10599.8" gradientTransform="matrix(-0.84, 0.54, -0.54, -0.84, 31765.25, -32922.5)" gradientUnits="userSpaceOnUse"><stop offset="0" stop-color="#ef3a4b"/><stop offset="0.11" stop-color="#f15342"/><stop offset="0.42" stop-color="#f6952c"/><stop offset="0.69" stop-color="#fac51b"/><stop offset="0.89" stop-color="#fce311"/><stop offset="1" stop-color="#fdee0d"/></linearGradient><linearGradient id="Degradado_sin_nombre_482-2" x1="38477.26" y1="9982.11" x2="38477.26" y2="10111.94" xlink:href="#Degradado_sin_nombre_482"/><linearGradient id="Degradado_sin_nombre_478" x1="-22250.6" y1="-30278.92" x2="-22250.6" y2="-30157.08" gradientTransform="matrix(1, 0, 0, -1, 22324.34, -30150.34)" gradientUnits="userSpaceOnUse"><stop offset="0" stop-color="#67c28f"/><stop offset="0.18" stop-color="#62b793"/><stop offset="0.51" stop-color="#55989c"/><stop offset="0.95" stop-color="#4067ab"/><stop offset="1" stop-color="#3d61ad"/></linearGradient><linearGradient id="Degradado_sin_nombre_503" x1="38654.85" y1="-30303.6" x2="38593.33" y2="-30209.29" gradientTransform="translate(38728.16 -30150.34) rotate(180)" gradientUnits="userSpaceOnUse"><stop offset="0" stop-color="#373e99"/><stop offset="0.3" stop-color="#6a4c9e"/><stop offset="0.62" stop-color="#9959a3"/><stop offset="0.86" stop-color="#b761a6"/><stop offset="1" stop-color="#c264a7"/></linearGradient><linearGradient id="Degradado_sin_nombre_485" x1="-22265.98" y1="-30225.06" x2="-22282.48" y2="-30212.72" gradientTransform="matrix(1, 0, 0, -1, 22324.34, -30150.34)" gradientUnits="userSpaceOnUse"><stop offset="0" stop-color="#3554a5"/><stop offset="0.02" stop-color="#3556a5" stop-opacity="0.98"/><stop offset="0.27" stop-color="#3c7a9d" stop-opacity="0.63"/><stop offset="0.5" stop-color="#419697" stop-opacity="0.36"/><stop offset="0.71" stop-color="#45ab93" stop-opacity="0.16"/><stop offset="0.88" stop-color="#47b790" stop-opacity="0.04"/><stop offset="1" stop-color="#48bc8f" stop-opacity="0"/></linearGradient><linearGradient id="Degradado_sin_nombre_419-2" x1="-22250.53" y1="-30303.6" x2="-22312.05" y2="-30209.29" gradientTransform="matrix(1, 0, 0, -1, 22324.34, -30150.34)" xlink:href="#Degradado_sin_nombre_419"/><linearGradient id="Degradado_sin_nombre_419-3" x1="-22326.6" y1="-30189.01" x2="-22260.46" y2="-30286.9" gradientTransform="matrix(1, 0, 0, -1, 22324.34, -30150.34)" xlink:href="#Degradado_sin_nombre_419"/><linearGradient id="Degradado_sin_nombre_485-2" x1="-22272.36" y1="-30239.26" x2="-22286.54" y2="-30228.66" xlink:href="#Degradado_sin_nombre_485"/><linearGradient id="Degradado_sin_nombre_603" x1="-9392.22" y1="-42137.79" x2="-9392.22" y2="-42085.44" gradientTransform="matrix(0.89, 0.47, 0.47, -0.89, 27983.02, -32795.56)" gradientUnits="userSpaceOnUse"><stop offset="0" stop-color="#373e99" stop-opacity="0"/><stop offset="0.12" stop-color="#3b3f99" stop-opacity="0.03"/><stop offset="0.27" stop-color="#45429a" stop-opacity="0.1"/><stop offset="0.42" stop-color="#56469c" stop-opacity="0.22"/><stop offset="0.59" stop-color="#6e4d9f" stop-opacity="0.39"/><stop offset="0.76" stop-color="#8c55a2" stop-opacity="0.61"/><stop offset="0.93" stop-color="#b15fa5" stop-opacity="0.88"/><stop offset="1" stop-color="#c264a7"/></linearGradient><linearGradient id="Degradado_sin_nombre_589-3" x1="44331.21" y1="-13896.79" x2="44331.21" y2="-13844.44" xlink:href="#Degradado_sin_nombre_589"/><linearGradient id="Degradado_sin_nombre_482-3" x1="38514.04" y1="10026.8" x2="38514.04" y2="10156.63" xlink:href="#Degradado_sin_nombre_482"/><linearGradient id="Degradado_sin_nombre_478-2" x1="-22287.38" y1="-30323.61" x2="-22287.38" y2="-30201.77" xlink:href="#Degradado_sin_nombre_478"/><linearGradient id="Degradado_sin_nombre_603-2" x1="-9445.57" y1="-42115.35" x2="-9445.57" y2="-42063" xlink:href="#Degradado_sin_nombre_603"/><linearGradient id="Degradado_sin_nombre_402-3" x1="22994.37" y1="23321.51" x2="22994.37" y2="23452.35" xlink:href="#Degradado_sin_nombre_402"/><linearGradient id="Degradado_sin_nombre_419-4" x1="-6767.71" y1="-43662.69" x2="-6767.71" y2="-43553.42" gradientTransform="matrix(0.84, 0.54, 0.54, -0.84, 29287.25, -32922.5)" xlink:href="#Degradado_sin_nombre_419"/><linearGradient id="Degradado_sin_nombre_485-3" x1="38712.96" y1="-30225.06" x2="38696.46" y2="-30212.72" gradientTransform="translate(38728.16 -30150.34) rotate(180)" xlink:href="#Degradado_sin_nombre_485"/><linearGradient id="Degradado_sin_nombre_485-4" x1="38706.58" y1="-30239.26" x2="38692.4" y2="-30228.66" gradientTransform="translate(38728.16 -30150.34) rotate(180)" xlink:href="#Degradado_sin_nombre_485"/><linearGradient id="Degradado_sin_nombre_402-4" x1="-28375.33" y1="-9671.85" x2="-28375.33" y2="-9541.01" gradientTransform="matrix(0.84, -0.54, 0.54, 0.84, 29025.82, -7161.12)" xlink:href="#Degradado_sin_nombre_402"/><linearGradient id="Degradado_sin_nombre_482-4" x1="38550.82" y1="9982.11" x2="38550.82" y2="10111.94" xlink:href="#Degradado_sin_nombre_482"/><linearGradient id="Degradado_sin_nombre_478-3" x1="-22324.16" y1="-30278.92" x2="-22324.16" y2="-30157.08" xlink:href="#Degradado_sin_nombre_478"/><linearGradient id="Degradado_sin_nombre_503-2" x1="38728.41" y1="-30303.6" x2="38666.89" y2="-30209.29" xlink:href="#Degradado_sin_nombre_503"/><linearGradient id="Degradado_sin_nombre_419-5" x1="-22324.09" y1="-30303.6" x2="-22385.61" y2="-30209.29" gradientTransform="matrix(1, 0, 0, -1, 22324.34, -30150.34)" xlink:href="#Degradado_sin_nombre_419"/><linearGradient id="Degradado_sin_nombre_503-3" x1="-22313.13" y1="-30209.62" x2="-22269.5" y2="-30274.19" gradientTransform="matrix(1, 0, 0, -1, 22324.34, -30150.34)" xlink:href="#Degradado_sin_nombre_503"/><linearGradient id="Degradado_sin_nombre_603-3" x1="-9457.33" y1="-42172.01" x2="-9457.33" y2="-42119.66" xlink:href="#Degradado_sin_nombre_603"/><linearGradient id="Degradado_sin_nombre_482-5" x1="38587.6" y1="10026.8" x2="38587.6" y2="10156.63" xlink:href="#Degradado_sin_nombre_482"/><linearGradient id="Degradado_sin_nombre_589-4" x1="44224.51" y1="-13851.91" x2="44224.51" y2="-13799.56" xlink:href="#Degradado_sin_nombre_589"/><linearGradient id="Degradado_sin_nombre_402-5" x1="-28258.34" y1="-9649.82" x2="-28258.34" y2="-9518.98" gradientTransform="matrix(0.84, -0.54, 0.54, 0.84, 29025.82, -7161.12)" xlink:href="#Degradado_sin_nombre_402"/><linearGradient id="Degradado_sin_nombre_419-6" x1="44485" y1="-10691.35" x2="44485" y2="-10582.08" xlink:href="#Degradado_sin_nombre_419"/><linearGradient id="Degradado_sin_nombre_482-6" x1="38440.48" y1="9937.42" x2="38440.48" y2="10067.26" xlink:href="#Degradado_sin_nombre_482"/><linearGradient id="Degradado_sin_nombre_419-7" x1="-22213.75" y1="-30258.91" x2="-22275.27" y2="-30164.6" gradientTransform="matrix(1, 0, 0, -1, 22324.34, -30150.34)" xlink:href="#Degradado_sin_nombre_419"/><linearGradient id="Degradado_sin_nombre_419-8" x1="-22289.82" y1="-30144.32" x2="-22223.68" y2="-30242.21" gradientTransform="matrix(1, 0, 0, -1, 22324.34, -30150.34)" xlink:href="#Degradado_sin_nombre_419"/><linearGradient id="Degradado_sin_nombre_485-5" x1="-22235.58" y1="-30194.57" x2="-22249.76" y2="-30183.97" xlink:href="#Degradado_sin_nombre_485"/><linearGradient id="Degradado_sin_nombre_402-6" x1="22980.77" y1="23206.56" x2="22980.77" y2="23337.4" xlink:href="#Degradado_sin_nombre_402"/><linearGradient id="Degradado_sin_nombre_488" x1="38629.9" y1="-30195.63" x2="38653.39" y2="-30216.65" gradientTransform="translate(38728.16 -30150.34) rotate(180)" gradientUnits="userSpaceOnUse"><stop offset="0" stop-color="#fdee0d"/><stop offset="0.19" stop-color="#fceb0e"/><stop offset="0.34" stop-color="#fae110"/><stop offset="0.47" stop-color="#f6d114"/><stop offset="0.59" stop-color="#f1bb19"/><stop offset="0.7" stop-color="#ea9d20"/><stop offset="0.81" stop-color="#e27929"/><stop offset="0.91" stop-color="#d84f33"/><stop offset="1" stop-color="#ce253d"/></linearGradient><linearGradient id="Degradado_sin_nombre_402-7" x1="-28265.14" y1="-9707.3" x2="-28265.14" y2="-9576.46" gradientTransform="matrix(0.84, -0.54, 0.54, 0.84, 29025.82, -7161.12)" xlink:href="#Degradado_sin_nombre_402"/><linearGradient id="Degradado_sin_nombre_419-9" x1="44491.8" y1="-10633.87" x2="44491.8" y2="-10524.6" xlink:href="#Degradado_sin_nombre_419"/><linearGradient id="Degradado_sin_nombre_482-7" x1="38477.26" y1="9892.74" x2="38477.26" y2="10022.57" xlink:href="#Degradado_sin_nombre_482"/><linearGradient id="Degradado_sin_nombre_478-4" x1="-22250.6" y1="-30189.55" x2="-22250.6" y2="-30067.71" xlink:href="#Degradado_sin_nombre_478"/><linearGradient id="Degradado_sin_nombre_503-4" x1="38654.85" y1="-30214.22" x2="38593.33" y2="-30119.92" xlink:href="#Degradado_sin_nombre_503"/><linearGradient id="Degradado_sin_nombre_419-10" x1="-22250.53" y1="-30214.22" x2="-22312.05" y2="-30119.92" gradientTransform="matrix(1, 0, 0, -1, 22324.34, -30150.34)" xlink:href="#Degradado_sin_nombre_419"/><linearGradient id="Degradado_sin_nombre_488-2" x1="-22275.49" y1="-30195.63" x2="-22251.99" y2="-30216.65" gradientTransform="matrix(1, 0, 0, -1, 22324.34, -30150.34)" xlink:href="#Degradado_sin_nombre_488"/><linearGradient id="Degradado_sin_nombre_419-11" x1="-22326.6" y1="-30099.63" x2="-22260.46" y2="-30197.53" gradientTransform="matrix(1, 0, 0, -1, 22324.34, -30150.34)" xlink:href="#Degradado_sin_nombre_419"/><linearGradient id="Degradado_sin_nombre_603-4" x1="-9433.81" y1="-42058.68" x2="-9433.81" y2="-42006.33" xlink:href="#Degradado_sin_nombre_603"/><linearGradient id="Degradado_sin_nombre_589-5" x1="44289.62" y1="-13817.68" x2="44289.62" y2="-13765.33" xlink:href="#Degradado_sin_nombre_589"/><linearGradient id="Degradado_sin_nombre_402-8" x1="22987.57" y1="23264.04" x2="22987.57" y2="23394.88" xlink:href="#Degradado_sin_nombre_402"/><linearGradient id="Degradado_sin_nombre_419-12" x1="-6760.91" y1="-43605.21" x2="-6760.91" y2="-43495.94" gradientTransform="matrix(0.84, 0.54, 0.54, -0.84, 29287.25, -32922.5)" xlink:href="#Degradado_sin_nombre_419"/><linearGradient id="Degradado_sin_nombre_485-6" x1="38676.18" y1="-30180.37" x2="38659.68" y2="-30168.03" gradientTransform="translate(38728.16 -30150.34) rotate(180)" xlink:href="#Degradado_sin_nombre_485"/><linearGradient id="Degradado_sin_nombre_488-3" x1="38666.68" y1="-30240.31" x2="38690.17" y2="-30261.34" xlink:href="#Degradado_sin_nombre_488"/><linearGradient id="Degradado_sin_nombre_485-7" x1="38669.8" y1="-30194.57" x2="38655.62" y2="-30183.97" gradientTransform="translate(38728.16 -30150.34) rotate(180)" xlink:href="#Degradado_sin_nombre_485"/><linearGradient id="Degradado_sin_nombre_402-9" x1="-28320.23" y1="-9689.57" x2="-28320.23" y2="-9558.74" gradientTransform="matrix(0.84, -0.54, 0.54, 0.84, 29025.82, -7161.12)" xlink:href="#Degradado_sin_nombre_402"/><linearGradient id="Degradado_sin_nombre_419-13" x1="44546.89" y1="-10651.6" x2="44546.89" y2="-10542.33" xlink:href="#Degradado_sin_nombre_419"/><linearGradient id="Degradado_sin_nombre_482-8" x1="38514.04" y1="9937.42" x2="38514.04" y2="10067.26" xlink:href="#Degradado_sin_nombre_482"/><linearGradient id="Degradado_sin_nombre_478-5" x1="-22287.38" y1="-30234.23" x2="-22287.38" y2="-30112.4" xlink:href="#Degradado_sin_nombre_478"/><linearGradient id="Degradado_sin_nombre_503-5" x1="38691.63" y1="-30258.91" x2="38630.11" y2="-30164.6" xlink:href="#Degradado_sin_nombre_503"/><linearGradient id="Degradado_sin_nombre_485-8" x1="-22302.76" y1="-30180.37" x2="-22319.26" y2="-30168.03" xlink:href="#Degradado_sin_nombre_485"/><linearGradient id="Degradado_sin_nombre_419-14" x1="-22287.31" y1="-30258.91" x2="-22348.83" y2="-30164.6" gradientTransform="matrix(1, 0, 0, -1, 22324.34, -30150.34)" xlink:href="#Degradado_sin_nombre_419"/><linearGradient id="Degradado_sin_nombre_503-6" x1="-22276.35" y1="-30164.93" x2="-22232.73" y2="-30229.5" gradientTransform="matrix(1, 0, 0, -1, 22324.34, -30150.34)" xlink:href="#Degradado_sin_nombre_503"/><linearGradient id="Degradado_sin_nombre_488-4" x1="-22312.27" y1="-30240.31" x2="-22288.77" y2="-30261.34" gradientTransform="matrix(1, 0, 0, -1, 22324.34, -30150.34)" xlink:href="#Degradado_sin_nombre_488"/><linearGradient id="Degradado_sin_nombre_419-15" x1="-22363.38" y1="-30144.32" x2="-22297.24" y2="-30242.21" gradientTransform="matrix(1, 0, 0, -1, 22324.34, -30150.34)" xlink:href="#Degradado_sin_nombre_419"/><linearGradient id="Degradado_sin_nombre_485-9" x1="-22309.14" y1="-30194.57" x2="-22323.32" y2="-30183.97" xlink:href="#Degradado_sin_nombre_485"/><linearGradient id="Degradado_sin_nombre_402-10" x1="23042.67" y1="23246.32" x2="23042.67" y2="23377.15" xlink:href="#Degradado_sin_nombre_402"/><linearGradient id="Degradado_sin_nombre_419-16" x1="-6816.01" y1="-43587.49" x2="-6816.01" y2="-43478.22" gradientTransform="matrix(0.84, 0.54, 0.54, -0.84, 29287.25, -32922.5)" xlink:href="#Degradado_sin_nombre_419"/><linearGradient id="Degradado_sin_nombre_488-5" x1="38703.46" y1="-30195.63" x2="38726.95" y2="-30216.65" xlink:href="#Degradado_sin_nombre_488"/><linearGradient id="Degradado_sin_nombre_402-11" x1="-28327.03" y1="-9747.05" x2="-28327.03" y2="-9616.21" gradientTransform="matrix(0.84, -0.54, 0.54, 0.84, 29025.82, -7161.12)" xlink:href="#Degradado_sin_nombre_402"/><linearGradient id="Degradado_sin_nombre_482-9" x1="38550.82" y1="9892.74" x2="38550.82" y2="10022.57" xlink:href="#Degradado_sin_nombre_482"/><linearGradient id="Degradado_sin_nombre_478-6" x1="-22324.16" y1="-30189.55" x2="-22324.16" y2="-30067.71" xlink:href="#Degradado_sin_nombre_478"/><linearGradient id="Degradado_sin_nombre_503-7" x1="38728.41" y1="-30214.22" x2="38666.89" y2="-30119.92" xlink:href="#Degradado_sin_nombre_503"/><linearGradient id="Degradado_sin_nombre_419-17" x1="-22324.09" y1="-30214.22" x2="-22385.61" y2="-30119.92" gradientTransform="matrix(1, 0, 0, -1, 22324.34, -30150.34)" xlink:href="#Degradado_sin_nombre_419"/><linearGradient id="Degradado_sin_nombre_503-8" x1="-22313.13" y1="-30120.25" x2="-22269.5" y2="-30184.82" gradientTransform="matrix(1, 0, 0, -1, 22324.34, -30150.34)" xlink:href="#Degradado_sin_nombre_503"/><linearGradient id="Degradado_sin_nombre_488-6" x1="-22349.04" y1="-30195.63" x2="-22325.55" y2="-30216.65" gradientTransform="matrix(1, 0, 0, -1, 22324.34, -30150.34)" xlink:href="#Degradado_sin_nombre_488"/><linearGradient id="Degradado_sin_nombre_603-5" x1="-9498.92" y1="-42092.9" x2="-9498.92" y2="-42040.55" xlink:href="#Degradado_sin_nombre_603"/><linearGradient id="Degradado_sin_nombre_402-12" x1="23049.46" y1="23303.79" x2="23049.46" y2="23434.63" xlink:href="#Degradado_sin_nombre_402"/><linearGradient id="Degradado_sin_nombre_419-18" x1="-6822.8" y1="-43644.96" x2="-6822.8" y2="-43535.69" gradientTransform="matrix(0.84, 0.54, 0.54, -0.84, 29287.25, -32922.5)" xlink:href="#Degradado_sin_nombre_419"/><linearGradient id="Degradado_sin_nombre_485-10" x1="38743.36" y1="-30194.57" x2="38729.18" y2="-30183.97" gradientTransform="translate(38728.16 -30150.34) rotate(180)" xlink:href="#Degradado_sin_nombre_485"/><linearGradient id="Degradado_sin_nombre_482-10" x1="38587.6" y1="9937.42" x2="38587.6" y2="10067.26" xlink:href="#Degradado_sin_nombre_482"/><linearGradient id="Degradado_sin_nombre_503-9" x1="38765.19" y1="-30258.91" x2="38703.67" y2="-30164.6" xlink:href="#Degradado_sin_nombre_503"/><linearGradient id="Degradado_sin_nombre_503-10" x1="-22349.91" y1="-30164.93" x2="-22306.28" y2="-30229.5" gradientTransform="matrix(1, 0, 0, -1, 22324.34, -30150.34)" xlink:href="#Degradado_sin_nombre_503"/><linearGradient id="Degradado_sin_nombre_402-13" x1="-28210.04" y1="-9725.02" x2="-28210.04" y2="-9594.18" gradientTransform="matrix(0.84, -0.54, 0.54, 0.84, 29025.82, -7161.12)" xlink:href="#Degradado_sin_nombre_402"/><linearGradient id="Degradado_sin_nombre_419-19" x1="44436.7" y1="-10616.15" x2="44436.7" y2="-10506.88" xlink:href="#Degradado_sin_nombre_419"/><linearGradient id="Degradado_sin_nombre_482-11" x1="38440.48" y1="9848.05" x2="38440.48" y2="9977.88" xlink:href="#Degradado_sin_nombre_482"/><linearGradient id="Degradado_sin_nombre_419-20" x1="-22213.75" y1="-30169.54" x2="-22275.27" y2="-30075.23" gradientTransform="matrix(1, 0, 0, -1, 22324.34, -30150.34)" xlink:href="#Degradado_sin_nombre_419"/><linearGradient id="Degradado_sin_nombre_419-21" x1="-22289.82" y1="-30054.95" x2="-22223.68" y2="-30152.84" gradientTransform="matrix(1, 0, 0, -1, 22324.34, -30150.34)" xlink:href="#Degradado_sin_nombre_419"/><linearGradient id="Degradado_sin_nombre_402-14" x1="23035.87" y1="23188.84" x2="23035.87" y2="23319.68" xlink:href="#Degradado_sin_nombre_402"/><linearGradient id="Degradado_sin_nombre_419-22" x1="-6809.21" y1="-43530.01" x2="-6809.21" y2="-43420.74" gradientTransform="matrix(0.84, 0.54, 0.54, -0.84, 29287.25, -32922.5)" xlink:href="#Degradado_sin_nombre_419"/><linearGradient id="Degradado_sin_nombre_488-7" x1="38666.68" y1="-30150.94" x2="38690.17" y2="-30171.97" xlink:href="#Degradado_sin_nombre_488"/><linearGradient id="Degradado_sin_nombre_402-15" x1="-28271.94" y1="-9764.77" x2="-28271.94" y2="-9633.93" gradientTransform="matrix(0.84, -0.54, 0.54, 0.84, 29025.82, -7161.12)" xlink:href="#Degradado_sin_nombre_402"/><linearGradient id="Degradado_sin_nombre_419-23" x1="44498.6" y1="-10576.4" x2="44498.6" y2="-10467.13" xlink:href="#Degradado_sin_nombre_419"/><linearGradient id="Degradado_sin_nombre_482-12" x1="38514.04" y1="9848.05" x2="38514.04" y2="9977.88" xlink:href="#Degradado_sin_nombre_482"/><linearGradient id="Degradado_sin_nombre_503-11" x1="38691.63" y1="-30169.54" x2="38630.11" y2="-30075.23" xlink:href="#Degradado_sin_nombre_503"/><linearGradient id="Degradado_sin_nombre_419-24" x1="-22287.31" y1="-30169.54" x2="-22348.83" y2="-30075.23" gradientTransform="matrix(1, 0, 0, -1, 22324.34, -30150.34)" xlink:href="#Degradado_sin_nombre_419"/><linearGradient id="Degradado_sin_nombre_503-12" x1="-22276.35" y1="-30075.56" x2="-22232.73" y2="-30140.13" gradientTransform="matrix(1, 0, 0, -1, 22324.34, -30150.34)" xlink:href="#Degradado_sin_nombre_503"/><linearGradient id="Degradado_sin_nombre_488-8" x1="-22312.27" y1="-30150.94" x2="-22288.77" y2="-30171.97" gradientTransform="matrix(1, 0, 0, -1, 22324.34, -30150.34)" xlink:href="#Degradado_sin_nombre_488"/><linearGradient id="Degradado_sin_nombre_419-25" x1="-22363.38" y1="-30054.95" x2="-22297.24" y2="-30152.84" gradientTransform="matrix(1, 0, 0, -1, 22324.34, -30150.34)" xlink:href="#Degradado_sin_nombre_419"/><linearGradient id="Degradado_sin_nombre_402-16" x1="23097.76" y1="23228.59" x2="23097.76" y2="23359.43" xlink:href="#Degradado_sin_nombre_402"/><linearGradient id="Degradado_sin_nombre_419-26" x1="-6871.1" y1="-43569.76" x2="-6871.1" y2="-43460.49" gradientTransform="matrix(0.84, 0.54, 0.54, -0.84, 29287.25, -32922.5)" xlink:href="#Degradado_sin_nombre_419"/><linearGradient id="Degradado_sin_nombre_482-13" x1="38587.6" y1="9848.05" x2="38587.6" y2="9977.88" xlink:href="#Degradado_sin_nombre_482"/><linearGradient id="Degradado_sin_nombre_503-13" x1="38765.19" y1="-30169.54" x2="38703.67" y2="-30075.23" xlink:href="#Degradado_sin_nombre_503"/><linearGradient id="Degradado_sin_nombre_503-14" x1="-22349.91" y1="-30075.56" x2="-22306.28" y2="-30140.13" gradientTransform="matrix(1, 0, 0, -1, 22324.34, -30150.34)" xlink:href="#Degradado_sin_nombre_503"/><linearGradient id="Degradado_sin_nombre_603-6" x1="-1081.93" y1="-1107.05" x2="-1081.93" y2="-1158.64" gradientTransform="translate(535.66 1545.62) rotate(27.73)" xlink:href="#Degradado_sin_nombre_603"/><linearGradient id="Degradado_sin_nombre_589-6" x1="-6497.54" y1="1739.8" x2="-6497.54" y2="1688.21" gradientTransform="matrix(-0.89, 0.47, 0.47, 0.89, -6516.83, 1545.62)" xlink:href="#Degradado_sin_nombre_589"/><linearGradient id="Degradado_sin_nombre_402-17" x1="-4363.64" y1="4888.95" x2="-4363.64" y2="4760.01" gradientTransform="translate(-6171.16 1765.84) rotate(-147.29)" xlink:href="#Degradado_sin_nombre_402"/><linearGradient id="Degradado_sin_nombre_419-27" x1="-1511.77" y1="-1114.76" x2="-1511.77" y2="-1222.44" gradientTransform="translate(734.33 1886.35) rotate(32.71)" xlink:href="#Degradado_sin_nombre_419"/><linearGradient id="Degradado_sin_nombre_485-11" x1="-5780.79" y1="49.3" x2="-5797.05" y2="37.15" gradientTransform="matrix(-1, 0, 0, 1, -5698.26, 0)" xlink:href="#Degradado_sin_nombre_485"/><linearGradient id="Degradado_sin_nombre_488-9" x1="-5790.16" y1="108.38" x2="-5767" y2="129.1" gradientTransform="matrix(-1, 0, 0, 1, -5698.26, 0)" xlink:href="#Degradado_sin_nombre_488"/><linearGradient id="Degradado_sin_nombre_485-12" x1="-5787.08" y1="63.3" x2="-5801.05" y2="52.85" gradientTransform="matrix(-1, 0, 0, 1, -5698.26, 0)" xlink:href="#Degradado_sin_nombre_485"/><linearGradient id="Degradado_sin_nombre_402-18" x1="544.57" y1="1736.54" x2="544.57" y2="1607.6" gradientTransform="matrix(0.84, -0.54, -0.54, -0.84, 472.9, 1765.84)" xlink:href="#Degradado_sin_nombre_402"/><linearGradient id="Degradado_sin_nombre_419-28" x1="-6419.98" y1="2037.65" x2="-6419.98" y2="1929.97" gradientTransform="matrix(-0.84, 0.54, 0.54, 0.84, -6432.59, 1886.35)" xlink:href="#Degradado_sin_nombre_419"/><linearGradient id="Degradado_sin_nombre_482-14" x1="-5943.15" y1="3628.09" x2="-5943.15" y2="3500.14" gradientTransform="translate(-5875.41 3630.4) rotate(180)" xlink:href="#Degradado_sin_nombre_482"/><linearGradient id="Degradado_sin_nombre_478-7" x1="67.74" y1="102.38" x2="67.74" y2="-17.68" gradientTransform="matrix(1, 0, 0, 1, 0, 0)" xlink:href="#Degradado_sin_nombre_478"/><linearGradient id="Degradado_sin_nombre_503-15" x1="-5765.57" y1="126.7" x2="-5826.19" y2="33.76" gradientTransform="matrix(-1, 0, 0, 1, -5698.26, 0)" xlink:href="#Degradado_sin_nombre_503"/><linearGradient id="Degradado_sin_nombre_485-13" x1="52.59" y1="49.3" x2="36.32" y2="37.15" gradientTransform="matrix(1, 0, 0, 1, 0, 0)" xlink:href="#Degradado_sin_nombre_485"/><linearGradient id="Degradado_sin_nombre_419-29" x1="67.81" y1="126.7" x2="7.18" y2="33.76" gradientTransform="matrix(1, 0, 0, 1, 0, 0)" xlink:href="#Degradado_sin_nombre_419"/><linearGradient id="Degradado_sin_nombre_503-16" x1="78.61" y1="34.09" x2="121.6" y2="97.72" gradientTransform="matrix(1, 0, 0, 1, 0, 0)" xlink:href="#Degradado_sin_nombre_503"/><linearGradient id="Degradado_sin_nombre_488-10" x1="43.22" y1="108.38" x2="66.37" y2="129.1" gradientTransform="matrix(1, 0, 0, 1, 0, 0)" xlink:href="#Degradado_sin_nombre_488"/><linearGradient id="Degradado_sin_nombre_419-30" x1="-7.15" y1="13.78" x2="58.02" y2="110.25" gradientTransform="matrix(1, 0, 0, 1, 0, 0)" xlink:href="#Degradado_sin_nombre_419"/><linearGradient id="Degradado_sin_nombre_485-14" x1="46.3" y1="63.3" x2="32.32" y2="52.85" gradientTransform="matrix(1, 0, 0, 1, 0, 0)" xlink:href="#Degradado_sin_nombre_485"/><pattern id="New_Pattern" data-name="New Pattern" width="73.56" height="89.37" patternTransform="translate(47.51 -289.65) scale(1.9)" patternUnits="userSpaceOnUse" viewBox="0 0 73.56 89.37"><rect class="cls-1" width="73.56" height="89.37"/><path class="cls-2" d="M86.89,133.42s-17.32-.29-25.59-16a29.42,29.42,0,0,1,1.32-30.16s17.48.57,25.59,16C95.88,117.85,86.89,133.42,86.89,133.42ZM66.55,94.72s-5.7,8.6.16,19.75a21.29,21.29,0,0,0,16.18,11.34s5-9.93-.16-19.75A21.74,21.74,0,0,0,66.55,94.72Z"/><path class="cls-3" d="M72.82,134.06c0-43.26,37.7-64.69,37.7-64.69s37.7,18.26,37.7,64.69c0,44.05-37.7,64.69-37.7,64.69S72.82,174.94,72.82,134.06Zm15.26-.19c0,27.52,22.44,43.55,22.44,43.55A52.78,52.78,0,0,0,133,133.87c0-31.26-22.44-43.55-22.44-43.55S88.08,104.75,88.08,133.87Z"/><path class="cls-4" d="M50.11,88.73s-17.32-.29-25.59-16a29.42,29.42,0,0,1,1.32-30.16s17.48.57,25.59,16C59.1,73.16,50.11,88.73,50.11,88.73ZM29.77,50s-5.7,8.59.17,19.75A21.27,21.27,0,0,0,46.11,81.12s5-9.93-.16-19.75A21.75,21.75,0,0,0,29.77,50Z"/><path class="cls-5" d="M76.12,88.63C96.55,56.82,134.4,58.86,134.4,58.86s19.1,31.24-2.83,65.38C110.77,156.64,73.29,154,73.29,154S56.81,118.69,76.12,88.63ZM87.44,95.7c-13,20.24-4.07,42.62-4.07,42.62a46.14,46.14,0,0,0,37.07-21.43c14.76-23,4.07-42.62,4.07-42.62S101.19,74.28,87.44,95.7Z"/><path class="cls-6" d="M73.82,154s-37.47,2.63-58.28-29.77C-6.39,90.1,12.71,58.86,12.71,58.86s37.85-2,58.29,29.77C90.3,118.69,73.82,154,73.82,154ZM22.61,74.27s-10.7,19.63,4.07,42.62a46.14,46.14,0,0,0,37.07,21.43s8.93-22.38-4.07-42.62C45.92,74.28,22.61,74.27,22.61,74.27Z"/><path class="cls-7" d="M12.7,58.89v0h0c1,0,31.85-1.29,48.65,24.86,16.12,25.11,2.36,54.6,2.36,54.6s.31-.78.74-2.2c.28-.94.61-2.16.93-3.61.16-.72.32-1.5.47-2.34a55.23,55.23,0,0,0,.79-7.12,51.66,51.66,0,0,0-.3-8.5c-.14-1.2-.33-2.42-.58-3.65a43.93,43.93,0,0,0-1.52-5.65,43.22,43.22,0,0,0-4.6-9.55h0c-.38-.6-.78-1.17-1.17-1.73l-.3-.42c-.4-.55-.8-1.09-1.2-1.6l-.08-.1c-.38-.48-.77-.95-1.16-1.4-.13-.15-.25-.3-.38-.44-.37-.43-.75-.84-1.13-1.25l-.35-.36c-.33-.34-.66-.67-1-1l-.51-.49c-.3-.28-.6-.56-.91-.83l-.81-.71-.7-.58-.71-.57-.51-.39c-.48-.36-.95-.71-1.43-1L47,82.57l-.93-.63h0a47.39,47.39,0,0,0-23.45-7.66,40.54,40.54,0,0,0-3.33,23.14c0,.23.06.46.1.7s.09.56.13.84c.08.46.17.91.26,1.37.05.24.11.49.17.73s.14.64.22,1l.18.72c.14.52.28,1,.44,1.55,0,.18.12.36.17.54.13.42.27.83.42,1.25l.21.61c.21.56.42,1.13.65,1.7l.15.35c.21.5.43,1,.66,1.51l.24.52c.29.61.58,1.22.9,1.83l.09.17c.3.57.62,1.15,1,1.73l.28.49c.37.64.76,1.27,1.17,1.91h0a46.57,46.57,0,0,0,11.7,12.55c1,.76,2.07,1.45,3.1,2.09s2.07,1.21,3.08,1.73a47.18,47.18,0,0,0,12.32,4.28c.75.15,1.46.27,2.11.37a32.07,32.07,0,0,0,4.76.41s-31.3,2.2-48.67-24.85A53.27,53.27,0,0,1,12.7,58.89Z"/><path class="cls-8" d="M36,89.37c0-43.25,37.7-64.68,37.7-64.68s37.7,18.25,37.7,64.68c0,44-37.7,64.69-37.7,64.69S36,130.25,36,89.37Zm15.27-.19c0,27.52,22.43,43.55,22.43,43.55A52.78,52.78,0,0,0,96.18,89.18c0-31.26-22.44-43.55-22.44-43.55S51.31,60.06,51.31,89.18Z"/><path class="cls-9" d="M73.77,24.7h0c-1,.55-31.46,18.45-31.46,54,0,34.14,31.48,54,31.48,54s-.79-.56-2.07-1.66c-.85-.73-1.93-1.7-3.13-2.9-.6-.59-1.24-1.25-1.9-2a65.26,65.26,0,0,1-5.17-6.37,59.52,59.52,0,0,1-5-8.36c-.6-1.25-1.17-2.54-1.7-3.88a50.62,50.62,0,0,1-2-6.38,49.51,49.51,0,0,1-1.47-12h0c0-.81,0-1.6,0-2.39l0-.59c0-.77.09-1.53.17-2.28,0,0,0-.09,0-.14.07-.7.16-1.39.25-2.07l.09-.65c.1-.65.21-1.28.33-1.91,0-.18.07-.37.11-.55.1-.54.22-1.07.34-1.59.06-.26.13-.53.19-.79q.18-.69.36-1.35c.11-.4.23-.8.35-1.19s.2-.66.31-1,.22-.66.33-1l.25-.69c.23-.64.48-1.27.73-1.89,0-.13.11-.27.17-.4.16-.4.33-.79.51-1.18v0A54.32,54.32,0,0,1,73.74,45.63s10.91,6,17.52,20.22l.33.73.39.9c.21.49.4,1,.6,1.48.1.26.2.53.29.8s.26.71.38,1.07.18.53.27.81c.19.57.37,1.16.54,1.75.06.21.11.42.17.63.13.48.25,1,.37,1.46.06.23.11.47.17.71.15.67.29,1.35.42,2,0,.14,0,.29.08.43.1.61.2,1.23.29,1.85,0,.22.07.44.1.66.1.76.19,1.53.26,2.32,0,.07,0,.15,0,.22q.09,1.11.15,2.25l0,.65c0,.84.06,1.69.06,2.56h0a53.5,53.5,0,0,1-3.51,19.32c-.52,1.37-1.09,2.68-1.7,3.92s-1.23,2.44-1.89,3.58a54.58,54.58,0,0,1-9.21,11.73c-.63.61-1.24,1.17-1.8,1.66a36.22,36.22,0,0,1-4.33,3.34s31.49-17.23,31.49-54C105.23,40.56,74.75,25.19,73.77,24.7Z"/><path class="cls-10" d="M79,149.9a144.62,144.62,0,0,0,11.72-11.15c.47-.53,1-1.08,1.42-1.64a46.07,46.07,0,0,0,28.28-20.22c14.76-23,4.07-42.62,4.07-42.62s-23.32,0-37.07,21.43c-6.89,10.72-7.62,22-6.79,30.3a55.42,55.42,0,0,1-6.72,6.31l-.83.24a43.49,43.49,0,0,1-6.16-5.13c-.83-11.71.8-25.74,9.18-38.79C96.55,56.82,134.4,58.86,134.4,58.86s19.1,31.24-2.83,65.39c-20,31.22-55.59,29.9-58.13,29.77C73.82,153.77,76,152.38,79,149.9Z"/><path class="cls-11" d="M54.48,71A55.73,55.73,0,0,0,42.26,60.29L40.7,64S50.28,68.29,54.48,71Z"/><path class="cls-12" d="M68.1,149.9a143,143,0,0,1-11.72-11.15c-.48-.53-1-1.08-1.43-1.64a46.06,46.06,0,0,1-28.27-20.22c-14.77-23-4.07-42.62-4.07-42.62s23.31,0,37.07,21.43c6.88,10.72,7.61,22,6.78,30.3a57,57,0,0,0,6.72,6.31l.84.24a44.09,44.09,0,0,0,6.16-5.13c.83-11.71-.8-25.74-9.18-38.79C50.56,56.82,12.71,58.86,12.71,58.86s-19.1,31.24,2.83,65.39c20.06,31.22,55.6,29.9,58.13,29.77C73.3,153.77,71.17,152.38,68.1,149.9Z"/><path class="cls-13" d="M55,137.11a47.7,47.7,0,0,1-10.39-3.85c-1-.52-2-1.1-3.08-1.73s-2.07-1.33-3.1-2.09a46.57,46.57,0,0,1-11.7-12.55c-.41-.64-.8-1.27-1.17-1.91l-.28-.49c-.34-.58-.66-1.16-1-1.73l-.09-.17c-.32-.61-.61-1.22-.9-1.83l-.24-.52c-.23-.51-.45-1-.66-1.51l-.15-.35c-.23-.57-.44-1.14-.65-1.7l-.21-.61c-.15-.42-.29-.83-.42-1.25-.05-.18-.12-.36-.17-.54-.16-.52-.3-1-.44-1.55l-.18-.72c-.08-.32-.15-.64-.22-1s-.12-.49-.17-.73c-.09-.46-.18-.91-.26-1.37,0-.28-.09-.56-.13-.84s-.07-.47-.1-.7C17.41,83.83,23.14,74.8,23.14,74.8a42.38,42.38,0,0,1,22.92,7.13h0l.93.63.31.22c.48.33,1,.68,1.43,1l.51.39.71.57.7.58.81.71c.31.27.61.55.91.83l.51.49c.34.33.67.66,1,1l.35.36c.38.41.76.82,1.13,1.25.13.14.25.29.38.44.39.45.78.92,1.16,1.4L57,92c.4.51.8,1,1.2,1.6l.3.42c.39.56.79,1.13,1.17,1.73a43.22,43.22,0,0,1,4.6,9.55,43.93,43.93,0,0,1,1.52,5.65c.25,1.23.44,2.45.58,3.65a51.66,51.66,0,0,1,.3,8.5c0,1-.13,2-.22,3l1,1c2.52-10.88,3.86-27.91-6-43.29C44.59,57.57,13.7,58.82,12.74,58.86h0v0a53.27,53.27,0,0,0,2.38,54.58C26.93,131.92,45.24,136.76,55.7,138Z"/><path class="cls-14" d="M51.49,86.08a39.28,39.28,0,0,0-14.87-5.87L37,77.35S46.11,80.73,51.49,86.08Z"/><path class="cls-15" d="M60.94,103.26c8.12-15.44,25.59-16,25.59-16a29.42,29.42,0,0,1,1.32,30.16c-8.26,15.72-25.59,16-25.59,16S53.27,117.85,60.94,103.26Zm5.48,2.8c-5.16,9.82-.16,19.75-.16,19.75a21.29,21.29,0,0,0,16.18-11.34c5.86-11.15.16-19.75.16-19.75A21.76,21.76,0,0,0,66.42,106.06Z"/><path class="cls-16" d="M13.34,133.42s-17.33-.29-25.6-16a29.42,29.42,0,0,1,1.32-30.16s17.48.57,25.6,16C22.32,117.85,13.34,133.42,13.34,133.42ZM-7,94.72s-5.7,8.6.17,19.75A21.27,21.27,0,0,0,9.33,125.81s5-9.93-.16-19.75A21.74,21.74,0,0,0-7,94.72Z"/><path class="cls-17" d="M-.74,134.06C-.74,90.8,37,69.37,37,69.37s37.7,18.26,37.7,64.69c0,44.05-37.7,64.69-37.7,64.69S-.74,174.94-.74,134.06Zm15.27-.19c0,27.52,22.43,43.55,22.43,43.55A52.78,52.78,0,0,0,59.4,133.87C59.4,102.61,37,90.32,37,90.32S14.53,104.75,14.53,133.87Z"/><path class="cls-18" d="M37,69.39l0,0,0,0c-1,.55-31.46,18.45-31.46,54,0,34.13,31.48,54,31.48,54s-.79-.56-2.07-1.66c-.85-.73-1.93-1.7-3.13-2.9-.6-.6-1.24-1.25-1.9-2a65.26,65.26,0,0,1-5.17-6.37,59.65,59.65,0,0,1-5-8.37c-.6-1.24-1.17-2.53-1.7-3.88a50.47,50.47,0,0,1-2-6.37,49.51,49.51,0,0,1-1.47-12h0c0-.81,0-1.6.05-2.39l0-.59c0-.77.1-1.54.17-2.28,0-.05,0-.1,0-.14.07-.7.16-1.39.25-2.07,0-.22.06-.44.1-.66.09-.64.2-1.28.32-1.9,0-.19.07-.37.11-.56.1-.53.22-1.06.34-1.58.06-.27.13-.53.19-.8l.36-1.35c.11-.4.23-.79.35-1.18s.2-.67.31-1,.22-.67.33-1,.17-.47.25-.7c.24-.64.48-1.27.73-1.88l.17-.41c.16-.39.33-.79.51-1.17v0A54.33,54.33,0,0,1,37,90.32s10.91,6,17.52,20.22l.33.73.39.9q.31.72.6,1.47c.1.27.2.54.29.81s.26.7.38,1.06l.27.81c.19.58.37,1.16.54,1.76.06.21.11.42.17.63.13.48.25,1,.37,1.45.06.24.11.48.17.72.15.67.29,1.35.42,2.05,0,.14.05.28.08.42.11.61.2,1.23.3,1.86l.09.66c.1.76.19,1.53.26,2.32,0,.07,0,.14,0,.21.06.74.11,1.5.15,2.26l0,.65c0,.84.06,1.69.06,2.56h0a53.37,53.37,0,0,1-3.51,19.32c-.52,1.36-1.09,2.67-1.7,3.92s-1.23,2.44-1.89,3.57a54.42,54.42,0,0,1-9.21,11.74c-.63.61-1.23,1.16-1.8,1.66A36.22,36.22,0,0,1,37,177.42s31.49-17.23,31.49-54C68.45,85.25,38,69.88,37,69.39Z"/><path class="cls-19" d="M24.16,58.57c8.12-15.44,25.59-16,25.59-16a29.42,29.42,0,0,1,1.32,30.16c-8.26,15.72-25.59,16-25.59,16S16.49,73.16,24.16,58.57Zm5.48,2.8c-5.16,9.82-.16,19.75-.16,19.75A21.28,21.28,0,0,0,45.66,69.79c5.86-11.16.16-19.75.16-19.75A21.76,21.76,0,0,0,29.64,61.37Z"/><path class="cls-20" d="M2.56,88.63C23,56.82,60.84,58.86,60.84,58.86S80,90.1,58,124.24C37.21,156.64-.27,154-.27,154S-16.74,118.69,2.56,88.63ZM13.88,95.7c-13,20.24-4.07,42.62-4.07,42.62a46.14,46.14,0,0,0,37.07-21.43C61.64,93.9,51,74.27,51,74.27S27.64,74.28,13.88,95.7Z"/><path class="cls-21" d="M60.86,58.89l0,0h0c-1,0-31.85-1.29-48.65,24.86-16.12,25.11-2.36,54.6-2.36,54.6s-.32-.78-.74-2.2c-.28-.94-.61-2.16-.94-3.61-.16-.72-.31-1.5-.46-2.34a55.23,55.23,0,0,1-.79-7.12,49.55,49.55,0,0,1,.3-8.5c.14-1.2.33-2.42.58-3.65a45.55,45.55,0,0,1,1.51-5.65,43.72,43.72,0,0,1,4.61-9.55h0c.38-.6.77-1.17,1.17-1.73l.3-.42c.4-.55.79-1.09,1.2-1.6l.08-.1c.38-.48.77-.95,1.16-1.4.12-.15.25-.3.38-.44.37-.43.75-.84,1.13-1.25l.35-.36c.33-.34.66-.67,1-1l.51-.49.9-.83.82-.71.69-.58.72-.57.51-.39c.47-.36.95-.71,1.43-1l.31-.22.93-.63h0A47.37,47.37,0,0,1,51,74.27a40.64,40.64,0,0,1,3.33,23.14c0,.23-.07.46-.1.7s-.09.56-.14.84c-.08.46-.16.91-.26,1.37-.05.24-.1.49-.16.73s-.14.64-.22,1-.12.48-.19.72c-.13.52-.27,1-.43,1.55l-.18.54c-.13.42-.26.83-.41,1.25l-.21.61c-.21.56-.42,1.13-.66,1.7,0,.12-.1.23-.14.35-.21.5-.43,1-.66,1.51-.08.17-.16.35-.25.52q-.42.92-.9,1.83a.91.91,0,0,1-.09.17c-.3.57-.62,1.15-1,1.73l-.28.49c-.38.64-.76,1.27-1.17,1.91h0a46.57,46.57,0,0,1-11.7,12.55c-1,.76-2.07,1.45-3.11,2.09S30,132.74,29,133.26a47.13,47.13,0,0,1-12.31,4.28c-.75.15-1.46.27-2.11.37a32.07,32.07,0,0,1-4.76.41s31.29,2.2,48.67-24.85A53.27,53.27,0,0,0,60.86,58.89Z"/><path class="cls-22" d="M19.08,71A55.73,55.73,0,0,1,31.3,60.29L32.86,64S23.28,68.29,19.08,71Z"/><path class="cls-23" d="M22.06,86.08a39.38,39.38,0,0,1,14.88-5.87l-.41-2.86S27.45,80.73,22.06,86.08Z"/><path class="cls-24" d="M.27,154S-37.21,156.64-58,124.24c-21.94-34.14-2.83-65.38-2.83-65.38s37.85-2,58.28,29.77C16.74,118.69.27,154,.27,154ZM-50.95,74.27s-10.69,19.63,4.07,42.62A46.14,46.14,0,0,0-9.81,138.32s8.93-22.38-4.07-42.62C-27.64,74.28-50.95,74.27-50.95,74.27Z"/><path class="cls-25" d="M-37.52,89.37c0-43.25,37.7-64.68,37.7-64.68s37.7,18.25,37.7,64.68c0,44-37.7,64.69-37.7,64.69S-37.52,130.25-37.52,89.37Zm15.27-.19c0,27.52,22.43,43.55,22.43,43.55A52.78,52.78,0,0,0,22.62,89.18C22.62,57.92.18,45.63.18,45.63S-22.25,60.06-22.25,89.18Z"/><path class="cls-26" d="M.21,24.7h0c-.95.55-31.46,18.45-31.46,54,0,34.14,31.48,54,31.48,54s-.79-.56-2.07-1.66c-.85-.73-1.93-1.7-3.13-2.9-.6-.59-1.24-1.25-1.9-2a63.82,63.82,0,0,1-5.16-6.37,58.59,58.59,0,0,1-5-8.36c-.6-1.25-1.17-2.54-1.7-3.88a50.62,50.62,0,0,1-2-6.38,50,50,0,0,1-1.47-12h0c0-.81,0-1.6.05-2.39l0-.59c0-.77.1-1.53.17-2.28,0,0,0-.09,0-.14.07-.7.16-1.39.25-2.07,0-.22.06-.44.1-.65.09-.65.2-1.28.32-1.91,0-.18.07-.37.11-.55.11-.54.22-1.07.34-1.59.06-.26.13-.53.19-.79q.18-.69.36-1.35c.11-.4.23-.8.35-1.19s.2-.66.31-1l.33-1,.25-.69c.24-.64.48-1.27.73-1.89.06-.13.11-.27.17-.4.16-.4.33-.79.51-1.18v0A54.32,54.32,0,0,1,.18,45.63s10.92,6,17.52,20.22l.33.73.39.9c.21.49.41,1,.6,1.48l.3.8c.12.35.25.71.37,1.07s.19.53.27.81c.19.57.37,1.16.54,1.75.06.21.11.42.17.63.13.48.25,1,.37,1.46.06.23.11.47.17.71.15.67.29,1.35.42,2,0,.14.05.29.08.43.11.61.21,1.23.3,1.85l.09.66c.1.76.19,1.53.26,2.32,0,.07,0,.15,0,.22q.09,1.11.15,2.25l0,.65c0,.84.06,1.69.06,2.56h0a53.28,53.28,0,0,1-3.51,19.32c-.52,1.37-1.09,2.68-1.69,3.92s-1.24,2.44-1.9,3.58a54.58,54.58,0,0,1-9.21,11.73c-.63.61-1.23,1.17-1.8,1.66a36.22,36.22,0,0,1-4.33,3.34s31.49-17.23,31.49-54C31.67,40.56,1.2,25.19.21,24.7Z"/><path class="cls-27" d="M5.46,149.9a144.62,144.62,0,0,0,11.72-11.15l1.43-1.64a46.08,46.08,0,0,0,28.27-20.22C61.64,93.9,51,74.27,51,74.27s-23.31,0-37.07,21.43C7,106.42,6.26,117.72,7.1,126a57,57,0,0,1-6.72,6.31l-.84.24a44.09,44.09,0,0,1-6.16-5.13c-.83-11.71.8-25.74,9.18-38.79C23,56.82,60.84,58.86,60.84,58.86S80,90.1,58,124.25C38,155.47,2.42,154.15-.12,154,.26,153.77,2.39,152.38,5.46,149.9Z"/><path class="cls-28" d="M-5.46,149.9a144.62,144.62,0,0,1-11.72-11.15l-1.43-1.64a46.08,46.08,0,0,1-28.27-20.22c-14.76-23-4.07-42.62-4.07-42.62s23.31,0,37.07,21.43c6.88,10.72,7.62,22,6.78,30.3a57,57,0,0,0,6.72,6.31l.84.24a44.09,44.09,0,0,0,6.16-5.13c.83-11.71-.8-25.74-9.18-38.79C-23,56.82-60.84,58.86-60.84,58.86S-79.95,90.1-58,124.25C-38,155.47-2.42,154.15.12,154-.26,153.77-2.39,152.38-5.46,149.9Z"/><path class="cls-29" d="M60.86,58.89l0,0h0c-1,0-31.85-1.29-48.65,24.86a49.43,49.43,0,0,0-7.48,21.45,67.52,67.52,0,0,1,2,21.27L7.1,126c-.1-1-.18-1.93-.22-3a49.55,49.55,0,0,1,.3-8.5c.14-1.2.33-2.42.58-3.65a45.55,45.55,0,0,1,1.51-5.65,43.72,43.72,0,0,1,4.61-9.55c.38-.6.77-1.17,1.17-1.73l.3-.42c.4-.55.79-1.09,1.2-1.6l.08-.1c.38-.48.77-.95,1.16-1.4.12-.15.25-.3.38-.44.37-.43.75-.84,1.13-1.25l.35-.36c.33-.34.66-.67,1-1l.51-.49.9-.83.82-.71.69-.58.72-.57.51-.39c.47-.36.95-.71,1.43-1l.31-.22.93-.63h0A42.36,42.36,0,0,1,50.42,74.8s5.72,9,3.86,22.61c0,.23-.07.46-.1.7s-.09.56-.14.84c-.08.46-.16.91-.26,1.37-.05.24-.1.49-.16.73s-.14.64-.22,1-.12.48-.19.72c-.13.52-.27,1-.43,1.55l-.18.54c-.13.42-.26.83-.41,1.25l-.21.61c-.21.56-.42,1.13-.66,1.7,0,.12-.1.23-.14.35-.21.5-.43,1-.66,1.51-.08.17-.16.35-.25.52q-.42.92-.9,1.83a.91.91,0,0,1-.09.17c-.3.57-.62,1.15-1,1.73l-.28.49c-.38.64-.76,1.27-1.17,1.91a46.57,46.57,0,0,1-11.7,12.55c-1,.76-2.07,1.45-3.11,2.09S30,132.74,29,133.26a47.45,47.45,0,0,1-10.38,3.85l-.75.86c10.46-1.21,28.77-6.05,40.62-24.5A53.27,53.27,0,0,0,60.86,58.89Z"/><path class="cls-30" d="M-12.62,103.26C-4.5,87.82,13,87.25,13,87.25a29.42,29.42,0,0,1,1.32,30.16c-8.26,15.72-25.59,16-25.59,16S-20.29,117.85-12.62,103.26Zm5.49,2.8c-5.17,9.82-.17,19.75-.17,19.75A21.28,21.28,0,0,0,8.88,114.47C14.75,103.32,9,94.72,9,94.72A21.73,21.73,0,0,0-7.13,106.06Z"/><path class="cls-31" d="M-74.3,134.06c0-43.26,37.7-64.69,37.7-64.69S1.11,87.63,1.11,134.06c0,44.05-37.71,64.69-37.71,64.69S-74.3,174.94-74.3,134.06Zm15.27-.19c0,27.52,22.43,43.55,22.43,43.55a52.78,52.78,0,0,0,22.44-43.55c0-31.26-22.44-43.55-22.44-43.55S-59,104.75-59,133.87Z"/><path class="cls-32" d="M86.89,44.05s-17.32-.3-25.59-16A29.42,29.42,0,0,1,62.62-2.13s17.48.58,25.59,16C95.88,28.48,86.89,44.05,86.89,44.05ZM66.55,5.35s-5.7,8.59.16,19.75A21.27,21.27,0,0,0,82.89,36.43s5-9.93-.16-19.75A21.75,21.75,0,0,0,66.55,5.35Z"/><path class="cls-33" d="M110.6,109.32S73.13,112,52.32,79.56c-21.93-34.15-2.83-65.38-2.83-65.38s37.85-2,58.28,29.76C127.08,74,110.6,109.32,110.6,109.32ZM59.39,29.58s-10.7,19.64,4.07,42.63a46.14,46.14,0,0,0,37.07,21.43S109.46,71.25,96.46,51C82.7,29.6,59.39,29.58,59.39,29.58Z"/><path class="cls-34" d="M49.48,14.2v0h0c1,0,31.85-1.3,48.65,24.86,16.12,25.1,2.36,54.6,2.36,54.6s.31-.79.74-2.2c.28-.94.61-2.16.93-3.61.16-.73.32-1.51.47-2.34a55.4,55.4,0,0,0,.79-7.13,51.55,51.55,0,0,0-.3-8.49c-.14-1.2-.33-2.42-.58-3.66a44.82,44.82,0,0,0-1.52-5.65A43.67,43.67,0,0,0,96.46,51h0c-.38-.59-.78-1.17-1.17-1.73L95,48.86c-.39-.55-.79-1.08-1.19-1.6l-.08-.1c-.38-.48-.77-.94-1.16-1.4l-.38-.44c-.37-.42-.75-.84-1.13-1.24l-.35-.36c-.33-.34-.66-.68-1-1-.17-.17-.34-.34-.52-.5s-.6-.55-.9-.82-.54-.48-.81-.71l-.7-.58c-.23-.2-.47-.39-.71-.57l-.51-.4c-.48-.36-1-.7-1.43-1l-.31-.22-.93-.62,0,0a47.52,47.52,0,0,0-23.45-7.66s-5.2,9.56-3.33,23.15c0,.23.06.46.1.69s.08.56.13.85c.08.45.17.9.26,1.36.05.24.11.49.16.73s.15.64.23,1l.18.73c.14.51.28,1,.44,1.54,0,.18.12.37.17.55.13.41.27.82.42,1.24l.21.61c.2.56.42,1.13.65,1.7l.15.35c.21.5.43,1,.66,1.51l.24.53c.29.6.58,1.21.9,1.83l.09.16c.3.58.62,1.15,1,1.73l.28.5c.37.63.76,1.27,1.17,1.91h0a46.72,46.72,0,0,0,11.7,12.55c1,.75,2.07,1.45,3.1,2.08s2.07,1.21,3.08,1.73a47.62,47.62,0,0,0,12.32,4.29c.75.15,1.46.27,2.11.37a32,32,0,0,0,4.76.41s-31.3,2.19-48.67-24.86A53.25,53.25,0,0,1,49.48,14.2Z"/><path class="cls-35" d="M72.82,44.69c0-43.26,37.7-64.69,37.7-64.69s37.7,18.26,37.7,64.69c0,44.05-37.7,64.68-37.7,64.68S72.82,85.56,72.82,44.69Zm15.26-.19c0,27.52,22.44,43.55,22.44,43.55A52.8,52.8,0,0,0,133,44.5C133,13.24,110.52,1,110.52,1S88.08,15.37,88.08,44.5Z"/><path class="cls-36" d="M104.88,105.21A139.76,139.76,0,0,1,93.16,94.06c-.48-.53-1-1.08-1.43-1.64A46,46,0,0,1,63.46,72.21c-14.77-23-4.07-42.63-4.07-42.63S82.7,29.6,96.46,51c6.88,10.72,7.61,22,6.78,30.3A57,57,0,0,0,110,87.62l.84.25A44.89,44.89,0,0,0,117,82.74c.83-11.71-.8-25.75-9.19-38.8C87.34,12.13,49.49,14.18,49.49,14.18s-19.1,31.23,2.83,65.38c20.06,31.23,55.6,29.91,58.13,29.77C110.08,109.09,108,107.69,104.88,105.21Z"/><path class="cls-37" d="M91.73,92.42a47,47,0,0,1-10.39-3.85c-1-.52-2-1.09-3.08-1.73s-2.07-1.33-3.1-2.08a46.72,46.72,0,0,1-11.7-12.55c-.41-.64-.8-1.28-1.17-1.91L62,69.8c-.34-.58-.66-1.15-1-1.73L61,67.91c-.32-.62-.61-1.23-.9-1.83l-.24-.53c-.23-.51-.45-1-.66-1.51L59,63.69c-.23-.57-.45-1.14-.65-1.7l-.21-.61c-.15-.42-.29-.83-.42-1.24,0-.18-.12-.37-.17-.55-.16-.52-.3-1-.44-1.54l-.18-.73c-.08-.32-.15-.64-.23-1s-.11-.49-.16-.73c-.09-.46-.18-.91-.26-1.36,0-.29-.09-.57-.13-.85s-.07-.46-.1-.69c-1.87-13.59,3.86-22.61,3.86-22.61a42.42,42.42,0,0,1,22.92,7.12l0,0,.93.62.31.22c.48.34,1,.68,1.43,1l.51.4c.24.18.48.37.71.57l.7.58c.27.23.54.46.81.71s.61.54.9.82.35.33.52.5c.34.32.67.66,1,1l.35.36c.38.4.76.82,1.13,1.24l.38.44c.39.46.78.92,1.16,1.4l.08.1c.4.52.8,1.05,1.19,1.6l.31.42c.39.56.79,1.14,1.17,1.73a43.67,43.67,0,0,1,4.6,9.55,44.82,44.82,0,0,1,1.52,5.65c.25,1.24.44,2.46.58,3.66a51.55,51.55,0,0,1,.3,8.49c0,1-.13,2-.22,3l1,1c2.52-10.88,3.86-27.9-6-43.28C81.37,12.88,50.48,14.13,49.52,14.18h0v0a53.25,53.25,0,0,0,2.38,54.58C63.71,87.23,82,92.07,92.47,93.29Z"/><path class="cls-38" d="M88.27,41.4A39.39,39.39,0,0,0,73.4,35.52l.41-2.85S82.88,36,88.27,41.4Z"/><path class="cls-39" d="M76.12-.74C96.55-32.56,134.4-30.51,134.4-30.51S153.5.72,131.57,34.87c-20.8,32.4-58.28,29.77-58.28,29.77S56.81,29.32,76.12-.74ZM87.44,6.33C74.44,26.56,83.37,49,83.37,49a46.14,46.14,0,0,0,37.07-21.43c14.76-23,4.07-42.62,4.07-42.62S101.19-15.09,87.44,6.33Z"/><path class="cls-40" d="M90.74,49.37c.47-.53,1-1.07,1.42-1.63a47.5,47.5,0,0,0,7.39-2.45h0C89.88,59.76,73.44,64.64,73.44,64.64A65.93,65.93,0,0,0,79,60.53,143.12,143.12,0,0,0,90.74,49.37Z"/><path class="cls-41" d="M73.82,64.64S36.35,67.27,15.54,34.87C-6.39.72,12.71-30.51,12.71-30.51S50.56-32.56,71-.74C90.3,29.32,73.82,64.64,73.82,64.64ZM22.61-15.1S11.91,4.53,26.68,27.52A46.14,46.14,0,0,0,63.75,49s8.93-22.39-4.07-42.62C45.92-15.09,22.61-15.1,22.61-15.1Z"/><path class="cls-42" d="M12.7-30.49v0h0c1,0,31.85-1.29,48.65,24.86C77.51,19.45,63.75,49,63.75,49s.31-.79.74-2.2c.28-.94.61-2.16.93-3.61.16-.72.32-1.51.47-2.34a55.2,55.2,0,0,0,.79-7.13,51.58,51.58,0,0,0-.3-8.49c-.14-1.2-.33-2.42-.58-3.66a44.23,44.23,0,0,0-1.52-5.64,43,43,0,0,0-4.6-9.55h0c-.38-.6-.78-1.17-1.17-1.73l-.3-.43c-.4-.55-.8-1.08-1.2-1.6l-.08-.09c-.38-.49-.77-.95-1.16-1.41L55.39.64C55,.21,54.64-.21,54.26-.61L53.91-1c-.33-.34-.66-.67-1-1l-.51-.5-.91-.82L50.68-4,50-4.58l-.71-.57-.51-.39c-.48-.36-.95-.71-1.43-1L47-6.8l-.93-.63,0,0A47.44,47.44,0,0,0,22.61-15.1,40.54,40.54,0,0,0,19.28,8c0,.23.06.46.1.69s.09.56.13.85c.08.45.17.91.26,1.37.05.24.11.48.17.73s.14.63.22,1l.18.72c.14.51.28,1,.44,1.55,0,.18.12.36.17.54.13.41.27.83.42,1.24l.21.61c.21.57.42,1.13.65,1.71l.15.35q.32.75.66,1.5l.24.53c.29.61.58,1.22.9,1.83l.09.17c.3.57.62,1.15,1,1.73l.28.49c.37.63.76,1.27,1.17,1.91h0a46.72,46.72,0,0,0,11.7,12.55c1,.76,2.07,1.45,3.1,2.08s2.07,1.21,3.08,1.74a47.93,47.93,0,0,0,12.32,4.28c.75.15,1.46.27,2.11.37a32.07,32.07,0,0,0,4.76.41s-31.3,2.2-48.67-24.86A53.28,53.28,0,0,1,12.7-30.49Z"/><path class="cls-43" d="M36,0c0-43.26,37.7-64.69,37.7-64.69S111.44-46.43,111.44,0c0,44.05-37.7,64.69-37.7,64.69S36,40.88,36,0ZM51.31-.19c0,27.52,22.43,43.55,22.43,43.55A52.78,52.78,0,0,0,96.18-.19c0-31.26-22.44-43.55-22.44-43.55S51.31-29.31,51.31-.19Z"/><path class="cls-44" d="M73.77-64.67l0,0,0,0c-1,.55-31.46,18.45-31.46,54,0,34.13,31.48,54,31.48,54S73,42.8,71.67,41.7c-.85-.73-1.93-1.7-3.13-2.9-.6-.6-1.24-1.25-1.9-2a65.26,65.26,0,0,1-5.17-6.37,59.65,59.65,0,0,1-5-8.37c-.6-1.24-1.17-2.53-1.7-3.88a50.47,50.47,0,0,1-2-6.37,49.51,49.51,0,0,1-1.47-12h0c0-.81,0-1.6,0-2.39l0-.6c0-.76.09-1.53.17-2.27,0,0,0-.1,0-.14.07-.7.16-1.39.25-2.07l.09-.66c.1-.64.21-1.28.33-1.9,0-.19.07-.37.11-.56.1-.53.22-1.06.34-1.58.06-.27.13-.53.19-.8l.36-1.35c.11-.4.23-.79.35-1.19s.2-.66.31-1,.22-.67.33-1,.17-.47.25-.7c.23-.64.48-1.27.73-1.88,0-.14.11-.27.17-.41q.24-.6.51-1.17v0A54.24,54.24,0,0,1,73.74-43.74s10.91,6,17.52,20.22l.33.73.39.9c.21.48.4,1,.6,1.47.1.27.2.54.29.81s.26.7.38,1.06l.27.81c.19.58.37,1.16.54,1.76.06.21.11.42.17.63.13.48.25,1,.37,1.45.06.24.11.48.17.72.15.67.29,1.35.42,2,0,.14,0,.28.08.42.1.61.2,1.23.29,1.86,0,.22.07.44.1.66.1.76.19,1.53.26,2.32,0,.07,0,.14,0,.21.06.74.11,1.49.15,2.26l0,.65c0,.84.06,1.69.06,2.56h0a53.58,53.58,0,0,1-3.51,19.32c-.52,1.36-1.09,2.67-1.7,3.92s-1.23,2.44-1.89,3.57a54.42,54.42,0,0,1-9.21,11.74c-.63.61-1.24,1.16-1.8,1.66a36.22,36.22,0,0,1-4.33,3.34s31.49-17.24,31.49-54C105.23-48.81,74.75-64.19,73.77-64.67Z"/><path class="cls-45" d="M79,60.53A143.12,143.12,0,0,0,90.74,49.37c.47-.53,1-1.07,1.42-1.63a46.11,46.11,0,0,0,28.28-20.22c14.76-23,4.07-42.63,4.07-42.63s-23.32,0-37.07,21.44c-6.89,10.71-7.62,22-6.79,30.3a57.19,57.19,0,0,1-6.72,6.31l-.83.24a44.26,44.26,0,0,1-6.16-5.13c-.83-11.71.8-25.75,9.18-38.79C96.55-32.56,134.4-30.51,134.4-30.51S153.5.72,131.57,34.87C111.52,66.1,76,64.78,73.44,64.64A65.93,65.93,0,0,0,79,60.53Z"/><path class="cls-46" d="M68.1,60.53A141.52,141.52,0,0,1,56.38,49.37c-.48-.53-1-1.07-1.43-1.63A46.1,46.1,0,0,1,26.68,27.52c-14.77-23-4.07-42.63-4.07-42.63s23.31,0,37.07,21.44c6.88,10.71,7.61,22,6.78,30.3a58.88,58.88,0,0,0,6.72,6.31l.84.24a44.89,44.89,0,0,0,6.16-5.13C81,26.34,79.38,12.3,71-.74,50.56-32.56,12.71-30.51,12.71-30.51S-6.39.72,15.54,34.87C35.6,66.1,71.14,64.78,73.67,64.64A68.64,68.64,0,0,1,68.1,60.53Z"/><path class="cls-47" d="M56.38,49.37c-.48-.53-1-1.07-1.43-1.63a47.85,47.85,0,0,1-7.39-2.45h0c9.68,14.47,26.11,19.35,26.11,19.35a68.64,68.64,0,0,1-5.57-4.11A141.52,141.52,0,0,1,56.38,49.37Z"/><path class="cls-48" d="M55,47.73a47.62,47.62,0,0,1-10.39-3.84c-1-.53-2-1.1-3.08-1.74s-2.07-1.32-3.1-2.08a46.72,46.72,0,0,1-11.7-12.55c-.41-.64-.8-1.28-1.17-1.91l-.28-.49c-.34-.58-.66-1.16-1-1.73l-.09-.17c-.32-.61-.61-1.22-.9-1.83L23,20.86q-.34-.75-.66-1.5L22.23,19c-.23-.58-.44-1.14-.65-1.71l-.21-.61c-.15-.41-.29-.83-.42-1.24-.05-.18-.12-.36-.17-.54-.16-.52-.3-1-.44-1.55l-.18-.72c-.08-.33-.15-.65-.22-1s-.12-.49-.17-.73c-.09-.46-.18-.92-.26-1.37,0-.29-.09-.57-.13-.85s-.07-.46-.1-.69c-1.87-13.58,3.86-22.61,3.86-22.61A42.42,42.42,0,0,1,46.06-7.45l0,0L47-6.8l.31.22c.48.33,1,.68,1.43,1l.51.39.71.57.7.58.81.71.91.82.51.5c.34.33.67.66,1,1l.35.36c.38.4.76.82,1.13,1.25l.38.43c.39.46.78.92,1.16,1.41l.08.09c.4.52.8,1.05,1.2,1.6l.3.43c.39.56.79,1.13,1.17,1.73a43,43,0,0,1,4.6,9.55,44.23,44.23,0,0,1,1.52,5.64c.25,1.24.44,2.46.58,3.66a51.58,51.58,0,0,1,.3,8.49c0,1-.13,2-.22,2.95l1,1c2.52-10.89,3.86-27.91-6-43.29C44.59-31.8,13.7-30.56,12.74-30.51h0v0a53.28,53.28,0,0,0,2.38,54.58C26.93,42.55,45.24,47.38,55.7,48.6,55.45,48.31,55.2,48,55,47.73Z"/><path class="cls-49" d="M60.94,13.89c8.12-15.44,25.59-16,25.59-16A29.42,29.42,0,0,1,87.85,28c-8.26,15.72-25.59,16-25.59,16S53.27,28.48,60.94,13.89Zm5.48,2.79c-5.16,9.82-.16,19.75-.16,19.75A21.27,21.27,0,0,0,82.44,25.1c5.86-11.16.16-19.75.16-19.75A21.76,21.76,0,0,0,66.42,16.68Z"/><path class="cls-50" d="M13.34,44.05S-4,43.75-12.26,28A29.42,29.42,0,0,1-10.94-2.13s17.48.58,25.6,16C22.32,28.48,13.34,44.05,13.34,44.05ZM-7,5.35s-5.7,8.59.17,19.75A21.24,21.24,0,0,0,9.33,36.43s5-9.93-.16-19.75A21.75,21.75,0,0,0-7,5.35Z"/><path class="cls-51" d="M39.34,43.94C59.77,12.13,97.62,14.18,97.62,14.18s19.11,31.23-2.83,65.38C74,112,36.51,109.32,36.51,109.32S20,74,39.34,43.94ZM50.66,51c-13,20.24-4.07,42.63-4.07,42.63A46.14,46.14,0,0,0,83.66,72.21c14.76-23,4.07-42.63,4.07-42.63S64.41,29.6,50.66,51Z"/><path class="cls-52" d="M97.63,14.2v0h0c-1,0-31.85-1.3-48.65,24.86-16.13,25.1-2.36,54.6-2.36,54.6s-.32-.79-.74-2.2c-.28-.94-.62-2.16-.94-3.61-.16-.73-.31-1.51-.46-2.34a57.12,57.12,0,0,1-.8-7.13,51.55,51.55,0,0,1,.3-8.49c.15-1.2.34-2.42.59-3.66a46.5,46.5,0,0,1,1.51-5.65A43.72,43.72,0,0,1,50.66,51h0c.38-.59.77-1.17,1.17-1.73l.3-.42c.39-.55.79-1.08,1.2-1.6l.08-.1c.38-.48.77-.94,1.16-1.4l.37-.44c.38-.42.76-.84,1.14-1.24.11-.13.23-.24.34-.36l1-1,.52-.5.9-.82c.27-.25.55-.48.82-.71l.69-.58q.36-.3.72-.57l.51-.4c.47-.36,1-.7,1.42-1l.32-.22.93-.62,0,0a47.49,47.49,0,0,1,23.45-7.66s5.19,9.56,3.33,23.15c0,.23-.07.46-.1.69s-.09.56-.14.85c-.08.45-.16.9-.26,1.36,0,.24-.1.49-.16.73s-.14.64-.22,1-.12.49-.19.73c-.13.51-.28,1-.43,1.54l-.18.55c-.13.41-.26.82-.41,1.24l-.21.61c-.21.56-.42,1.13-.66,1.7A3.68,3.68,0,0,1,88,64c-.2.5-.42,1-.65,1.51-.08.18-.16.35-.25.53q-.42.9-.9,1.83l-.09.16c-.3.58-.62,1.15-1,1.73-.09.17-.19.33-.29.5-.37.63-.75,1.27-1.16,1.91h0A46.72,46.72,0,0,1,72,84.76c-1,.75-2.07,1.45-3.11,2.08s-2.06,1.21-3.08,1.73a47.57,47.57,0,0,1-12.31,4.29c-.76.15-1.46.27-2.11.37a32.07,32.07,0,0,1-4.76.41s31.29,2.19,48.67-24.86A53.24,53.24,0,0,0,97.63,14.2Z"/><path class="cls-53" d="M55.86,26.32A55.73,55.73,0,0,1,68.08,15.6l1.56,3.74S60.06,23.6,55.86,26.32Z"/><path class="cls-54" d="M54,94.06l1.43-1.64A47.76,47.76,0,0,0,62.77,90h0c-9.68,14.48-26.12,19.36-26.12,19.36a67.37,67.37,0,0,0,5.58-4.12A142.9,142.9,0,0,0,54,94.06Z"/><path class="cls-55" d="M58.84,41.4a39.48,39.48,0,0,1,14.88-5.88l-.42-2.85S64.23,36,58.84,41.4Z"/><path class="cls-56" d="M37,109.32S-.43,112-21.24,79.56c-21.93-34.15-2.82-65.38-2.82-65.38s37.84-2,58.28,29.76C53.52,74,37,109.32,37,109.32ZM-14.17,29.58s-10.7,19.64,4.07,42.63A46.14,46.14,0,0,0,27,93.64S35.9,71.25,22.9,51C9.14,29.6-14.17,29.58-14.17,29.58Z"/><path class="cls-57" d="M-24.08,14.2l0,0h0c1,0,31.85-1.3,48.65,24.86C40.73,64.14,27,93.64,27,93.64s.31-.79.74-2.2c.28-.94.61-2.16.93-3.61.16-.73.32-1.51.47-2.34a55.4,55.4,0,0,0,.79-7.13,51.55,51.55,0,0,0-.3-8.49c-.14-1.2-.33-2.42-.58-3.66a44.82,44.82,0,0,0-1.52-5.65A43.22,43.22,0,0,0,22.9,51h0c-.38-.59-.77-1.17-1.17-1.73l-.3-.42c-.4-.55-.79-1.08-1.2-1.6l-.08-.1c-.38-.48-.77-.94-1.16-1.4-.12-.15-.25-.29-.38-.44-.37-.42-.75-.84-1.13-1.24l-.35-.36c-.33-.34-.66-.68-1-1l-.51-.5-.91-.82c-.27-.25-.54-.48-.81-.71l-.69-.58q-.36-.3-.72-.57l-.51-.4c-.48-.36-1-.7-1.43-1l-.31-.22-.93-.62,0,0a47.49,47.49,0,0,0-23.45-7.66s-5.2,9.56-3.33,23.15c0,.23.06.46.1.69s.09.56.14.85c.07.45.16.9.25,1.36.05.24.11.49.17.73s.14.64.22,1l.18.73c.14.51.28,1,.44,1.54.06.18.12.37.17.55.14.41.27.82.42,1.24l.21.61c.21.56.42,1.13.66,1.7a3.65,3.65,0,0,0,.14.35c.21.5.43,1,.66,1.51l.24.53q.43.9.9,1.83l.1.16c.3.58.62,1.15.95,1.73l.28.5c.38.63.76,1.27,1.17,1.91h0A46.72,46.72,0,0,0,1.6,84.76c1,.75,2.07,1.45,3.11,2.08s2.06,1.21,3.08,1.73A47.45,47.45,0,0,0,20.1,92.86c.75.15,1.46.27,2.11.37a32.07,32.07,0,0,0,4.76.41S-4.33,95.83-21.7,68.78A53.28,53.28,0,0,1-24.08,14.2Z"/><path class="cls-58" d="M-.74,44.69C-.74,1.43,37-20,37-20s37.7,18.26,37.7,64.69c0,44.05-37.7,64.68-37.7,64.68S-.74,85.56-.74,44.69Zm15.27-.19C14.53,72,37,88.05,37,88.05A52.8,52.8,0,0,0,59.4,44.5C59.4,13.24,37,1,37,1S14.53,15.37,14.53,44.5Z"/><path class="cls-59" d="M37-20h-.05C36-19.44,5.48-1.54,5.48,34c0,34.14,31.48,54,31.48,54s-.79-.57-2.07-1.66c-.85-.74-1.93-1.71-3.13-2.9-.6-.6-1.24-1.26-1.9-2a64.08,64.08,0,0,1-5.17-6.37,59.52,59.52,0,0,1-5-8.36c-.6-1.24-1.17-2.54-1.7-3.88a50.47,50.47,0,0,1-2-6.37,49.51,49.51,0,0,1-1.47-12h0c0-.81,0-1.61.05-2.39l0-.6c0-.77.1-1.53.17-2.28,0,0,0-.09,0-.14.07-.7.16-1.39.25-2.07,0-.22.06-.43.1-.65.09-.64.2-1.28.32-1.9,0-.19.07-.38.11-.56.1-.54.22-1.06.34-1.58.06-.27.13-.54.19-.8q.18-.69.36-1.35c.11-.4.23-.8.35-1.19s.2-.66.31-1l.33-1,.25-.69c.24-.64.48-1.27.73-1.89.06-.13.11-.27.17-.4.16-.4.33-.79.51-1.18v0A54.24,54.24,0,0,1,37,1s10.91,6,17.52,20.22l.33.73.39.9q.31.72.6,1.47c.1.26.2.54.29.8s.26.71.38,1.07l.27.81c.19.57.37,1.16.54,1.76.06.2.11.42.17.63.13.47.25,1,.37,1.45.06.24.11.48.17.72q.23,1,.42,2c0,.14.05.29.08.43.11.61.2,1.23.3,1.86l.09.66c.1.76.19,1.53.26,2.31,0,.07,0,.15,0,.22q.09,1.11.15,2.25l0,.66c0,.84.06,1.69.06,2.56h0a53.27,53.27,0,0,1-3.51,19.31c-.52,1.37-1.09,2.68-1.7,3.93S53,70.18,52.3,71.31A54.08,54.08,0,0,1,43.09,83c-.63.62-1.23,1.17-1.8,1.67A36.22,36.22,0,0,1,37,88.05S68.45,70.81,68.45,34C68.45-4.13,38-19.5,37-20Z"/><path class="cls-60" d="M42.24,105.21A142.9,142.9,0,0,0,54,94.06l1.43-1.64A46.06,46.06,0,0,0,83.66,72.21c14.76-23,4.07-42.63,4.07-42.63S64.41,29.6,50.66,51C43.77,61.73,43,73,43.88,81.31a56,56,0,0,1-6.73,6.31l-.83.25a44.89,44.89,0,0,1-6.16-5.13C29.33,71,31,57,39.34,43.94,59.77,12.13,97.62,14.18,97.62,14.18s19.11,31.23-2.83,65.38c-20.05,31.23-55.59,29.91-58.13,29.77A67.37,67.37,0,0,0,42.24,105.21Z"/><path class="cls-61" d="M17.7,26.32A56,56,0,0,0,5.48,15.6L3.92,19.34S13.5,23.6,17.7,26.32Z"/><path class="cls-62" d="M31.32,105.21A142.9,142.9,0,0,1,19.6,94.06l-1.43-1.64A46,46,0,0,1-10.1,72.21c-14.77-23-4.07-42.63-4.07-42.63S9.14,29.6,22.9,51c6.88,10.72,7.62,22,6.78,30.3a57,57,0,0,0,6.72,6.31l.84.25a44.89,44.89,0,0,0,6.16-5.13C44.23,71,42.6,57,34.22,43.94,13.78,12.13-24.06,14.18-24.06,14.18s-19.11,31.23,2.82,65.38c20.06,31.23,55.6,29.91,58.14,29.77A67.37,67.37,0,0,1,31.32,105.21Z"/><path class="cls-63" d="M97.63,14.2v0h0c-1,0-31.85-1.3-48.65,24.86a49.39,49.39,0,0,0-7.48,21.44,67.52,67.52,0,0,1,2,21.27l.42-.44c-.1-1-.18-1.92-.23-3a51.55,51.55,0,0,1,.3-8.49c.15-1.2.34-2.42.59-3.66a46.5,46.5,0,0,1,1.51-5.65A43.72,43.72,0,0,1,50.66,51c.38-.59.77-1.17,1.17-1.73l.3-.42c.39-.55.79-1.08,1.2-1.6l.08-.1c.38-.48.77-.94,1.16-1.4l.37-.44c.38-.42.76-.84,1.14-1.24.11-.13.23-.24.34-.36l1-1,.52-.5.9-.82c.27-.25.55-.48.82-.71l.69-.58q.36-.3.72-.57l.51-.4c.47-.36,1-.7,1.42-1l.32-.22.93-.62,0,0A42.4,42.4,0,0,1,87.2,30.12s5.72,9,3.86,22.61c0,.23-.07.46-.1.69s-.09.56-.14.85c-.08.45-.16.9-.26,1.36,0,.24-.1.49-.16.73s-.14.64-.22,1-.12.49-.19.73c-.13.51-.28,1-.43,1.54l-.18.55c-.13.41-.26.82-.41,1.24l-.21.61c-.21.56-.42,1.13-.66,1.7A3.68,3.68,0,0,1,88,64c-.2.5-.42,1-.65,1.51-.08.18-.16.35-.25.53q-.42.9-.9,1.83l-.09.16c-.3.58-.62,1.15-1,1.73-.09.17-.19.33-.29.5-.37.63-.75,1.27-1.16,1.91A46.72,46.72,0,0,1,72,84.76c-1,.75-2.07,1.45-3.11,2.08s-2.06,1.21-3.08,1.73a46.94,46.94,0,0,1-10.38,3.85l-.75.87c10.46-1.22,28.77-6.06,40.62-24.51A53.24,53.24,0,0,0,97.63,14.2Z"/><path class="cls-64" d="M19.6,94.06l-1.43-1.64A47.41,47.41,0,0,1,10.79,90h0c9.68,14.48,26.12,19.36,26.12,19.36a67.37,67.37,0,0,1-5.58-4.12A142.9,142.9,0,0,1,19.6,94.06Z"/><path class="cls-65" d="M18.17,92.42A46.94,46.94,0,0,1,7.79,88.57c-1-.52-2-1.09-3.08-1.73S2.64,85.51,1.6,84.76A46.72,46.72,0,0,1-10.1,72.21c-.41-.64-.79-1.28-1.17-1.91l-.28-.5c-.33-.58-.65-1.15-.95-1.73l-.1-.16q-.47-.93-.9-1.83l-.24-.53c-.23-.51-.45-1-.66-1.51a3.65,3.65,0,0,1-.14-.35c-.24-.57-.45-1.14-.66-1.7l-.21-.61c-.15-.42-.28-.83-.42-1.24-.05-.18-.11-.37-.17-.55-.16-.52-.3-1-.44-1.54l-.18-.73c-.08-.32-.15-.64-.22-1s-.12-.49-.17-.73c-.09-.46-.18-.91-.25-1.36,0-.29-.1-.57-.14-.85s-.07-.46-.1-.69c-1.87-13.59,3.86-22.61,3.86-22.61A42.4,42.4,0,0,1,9.28,37.24l0,0,.93.62.31.22c.48.34.95.68,1.43,1l.51.4q.36.27.72.57l.69.58c.27.23.54.46.81.71l.91.82.51.5c.34.32.67.66,1,1l.35.36c.38.4.76.82,1.13,1.24.13.15.26.29.38.44.39.46.78.92,1.16,1.4l.08.1c.41.52.8,1.05,1.2,1.6l.3.42c.4.56.79,1.14,1.17,1.73a43.22,43.22,0,0,1,4.6,9.55A44.82,44.82,0,0,1,29,66.21c.25,1.24.44,2.46.58,3.66a51.55,51.55,0,0,1,.3,8.49c0,1-.12,2-.22,3l.95,1c2.52-10.88,3.86-27.9-6-43.28C7.81,12.88-23.08,14.13-24,14.18h0l0,0A53.28,53.28,0,0,0-21.7,68.78C-9.85,87.23,8.46,92.07,18.92,93.29Z"/><path class="cls-66" d="M14.71,41.4A39.39,39.39,0,0,0-.16,35.52l.41-2.85S9.33,36,14.71,41.4Z"/><path class="cls-67" d="M2.56-.74C23-32.56,60.84-30.51,60.84-30.51S80,.72,58,34.87C37.21,67.27-.27,64.64-.27,64.64S-16.74,29.32,2.56-.74ZM13.88,6.33C.88,26.56,9.81,49,9.81,49A46.14,46.14,0,0,0,46.88,27.52C61.64,4.53,51-15.1,51-15.1S27.64-15.09,13.88,6.33Z"/><path class="cls-68" d="M60.86-30.49l0,0h0c-1,0-31.85-1.29-48.65,24.86C-3.95,19.45,9.81,49,9.81,49s-.32-.79-.74-2.2c-.28-.94-.61-2.16-.94-3.61-.16-.72-.31-1.51-.46-2.34a55.2,55.2,0,0,1-.79-7.13,49.47,49.47,0,0,1,.3-8.49c.14-1.2.33-2.42.58-3.66a45.88,45.88,0,0,1,1.51-5.64,43.5,43.5,0,0,1,4.61-9.55h0c.38-.6.77-1.17,1.17-1.73l.3-.43c.4-.55.79-1.08,1.2-1.6l.08-.09c.38-.49.77-.95,1.16-1.41l.38-.43c.37-.43.75-.85,1.13-1.25L19.65-1l1-1,.51-.5.9-.82L22.88-4l.69-.58.72-.57.51-.39c.47-.36.95-.71,1.43-1l.31-.22.93-.63,0,0A47.41,47.41,0,0,1,51-15.1,40.64,40.64,0,0,1,54.28,8c0,.23-.07.46-.1.69s-.09.56-.14.85c-.08.45-.16.91-.26,1.37-.05.24-.1.48-.16.73s-.14.63-.22,1-.12.48-.19.72c-.13.51-.27,1-.43,1.55l-.18.54c-.13.41-.26.83-.41,1.24L52,17.3c-.21.57-.42,1.13-.66,1.71,0,.11-.1.23-.14.35q-.32.75-.66,1.5c-.08.18-.16.35-.25.53q-.42.91-.9,1.83a1.4,1.4,0,0,1-.09.17c-.3.57-.62,1.15-1,1.73l-.28.49c-.38.63-.76,1.27-1.17,1.91h0a46.72,46.72,0,0,1-11.7,12.55c-1,.76-2.07,1.45-3.11,2.08S30,43.36,29,43.89a47.88,47.88,0,0,1-12.31,4.28c-.75.15-1.46.27-2.11.37A32.07,32.07,0,0,1,9.81,49s31.29,2.2,48.67-24.86A53.28,53.28,0,0,0,60.86-30.49Z"/><path class="cls-69" d="M17.18,49.37c.47-.53.95-1.07,1.43-1.63A47.41,47.41,0,0,0,26,45.29h0C16.32,59.76-.12,64.64-.12,64.64a65.93,65.93,0,0,0,5.58-4.11A143.12,143.12,0,0,0,17.18,49.37Z"/><path class="cls-70" d="M.27,64.64S-37.21,67.27-58,34.87C-79.95.72-60.84-30.51-60.84-30.51S-23-32.56-2.56-.74C16.74,29.32.27,64.64.27,64.64ZM-50.95-15.1S-61.64,4.53-46.88,27.52A46.14,46.14,0,0,0-9.81,49S-.88,26.56-13.88,6.33C-27.64-15.09-50.95-15.1-50.95-15.1Z"/><path class="cls-71" d="M-37.52,0c0-43.26,37.7-64.69,37.7-64.69S37.88-46.43,37.88,0C37.88,44.05.18,64.69.18,64.69S-37.52,40.88-37.52,0Zm15.27-.19C-22.25,27.33.18,43.36.18,43.36A52.78,52.78,0,0,0,22.62-.19C22.62-31.45.18-43.74.18-43.74S-22.25-29.31-22.25-.19Z"/><path class="cls-72" d="M.21-64.67l0,0,0,0c-.95.55-31.46,18.45-31.46,54,0,34.13,31.48,54,31.48,54s-.79-.56-2.07-1.66C-2.74,41-3.82,40-5,38.8c-.6-.6-1.24-1.25-1.9-2a63.82,63.82,0,0,1-5.16-6.37,58.72,58.72,0,0,1-5-8.37c-.6-1.24-1.17-2.53-1.7-3.88a50.47,50.47,0,0,1-2-6.37,50,50,0,0,1-1.47-12h0c0-.81,0-1.6.05-2.39l0-.6c0-.76.1-1.53.17-2.27,0,0,0-.1,0-.14.07-.7.16-1.39.25-2.07,0-.22.06-.44.1-.66.09-.64.2-1.28.32-1.9,0-.19.07-.37.11-.56.11-.53.22-1.06.34-1.58.06-.27.13-.53.19-.8l.36-1.35c.11-.4.23-.79.35-1.19s.2-.66.31-1,.22-.67.33-1,.17-.47.25-.7c.24-.64.48-1.27.73-1.88l.17-.41q.24-.6.51-1.17v0A54.24,54.24,0,0,1,.18-43.74s10.92,6,17.52,20.22l.33.73.39.9q.31.72.6,1.47l.3.81c.12.35.25.7.37,1.06s.19.54.27.81c.19.58.37,1.16.54,1.76.06.21.11.42.17.63.13.48.25,1,.37,1.45.06.24.11.48.17.72.15.67.29,1.35.42,2,0,.14.05.28.08.42q.16.92.3,1.86l.09.66c.1.76.19,1.53.26,2.32,0,.07,0,.14,0,.21.06.74.11,1.49.15,2.26l0,.65c0,.84.06,1.69.06,2.56h0a53.37,53.37,0,0,1-3.51,19.32c-.52,1.36-1.09,2.67-1.69,3.92s-1.24,2.44-1.9,3.57A54.42,54.42,0,0,1,6.31,38.36C5.68,39,5.08,39.52,4.51,40A36.22,36.22,0,0,1,.18,43.36s31.49-17.24,31.49-54A60.91,60.91,0,0,0,.21-64.67Z"/><path class="cls-73" d="M5.46,60.53A143.12,143.12,0,0,0,17.18,49.37c.47-.53.95-1.07,1.43-1.63A46.12,46.12,0,0,0,46.88,27.52C61.64,4.53,51-15.11,51-15.11s-23.31,0-37.07,21.44C7,17,6.26,28.35,7.1,36.63A58.88,58.88,0,0,1,.38,42.94l-.84.24a44.89,44.89,0,0,1-6.16-5.13c-.83-11.71.8-25.75,9.18-38.79C23-32.56,60.84-30.51,60.84-30.51S80,.72,58,34.87C38,66.1,2.42,64.78-.12,64.64A65.93,65.93,0,0,0,5.46,60.53Z"/><path class="cls-74" d="M-5.46,60.53A143.12,143.12,0,0,1-17.18,49.37c-.47-.53-.95-1.07-1.43-1.63A46.12,46.12,0,0,1-46.88,27.52c-14.76-23-4.07-42.63-4.07-42.63s23.31,0,37.07,21.44C-7,17-6.26,28.35-7.1,36.63A58.88,58.88,0,0,0-.38,42.94l.84.24a44.89,44.89,0,0,0,6.16-5.13C7.45,26.34,5.82,12.3-2.56-.74-23-32.56-60.84-30.51-60.84-30.51S-79.95.72-58,34.87C-38,66.1-2.42,64.78.12,64.64A65.93,65.93,0,0,1-5.46,60.53Z"/><path class="cls-75" d="M60.86-30.49l0,0h0c-1,0-31.85-1.29-48.65,24.86A49.39,49.39,0,0,0,4.69,15.79a67.61,67.61,0,0,1,2,21.28c.14-.15.28-.29.42-.45-.1-.94-.18-1.92-.22-2.95a49.47,49.47,0,0,1,.3-8.49c.14-1.2.33-2.42.58-3.66a45.88,45.88,0,0,1,1.51-5.64,43.5,43.5,0,0,1,4.61-9.55c.38-.6.77-1.17,1.17-1.73l.3-.43c.4-.55.79-1.08,1.2-1.6l.08-.09c.38-.49.77-.95,1.16-1.41l.38-.43c.37-.43.75-.85,1.13-1.25L19.65-1l1-1,.51-.5.9-.82L22.88-4l.69-.58.72-.57.51-.39c.47-.36.95-.71,1.43-1l.31-.22.93-.63,0,0a42.4,42.4,0,0,1,22.92-7.12s5.72,9,3.86,22.61c0,.23-.07.46-.1.69s-.09.56-.14.85c-.08.45-.16.91-.26,1.37-.05.24-.1.48-.16.73s-.14.63-.22,1-.12.48-.19.72c-.13.51-.27,1-.43,1.55l-.18.54c-.13.41-.26.83-.41,1.24L52,17.3c-.21.57-.42,1.13-.66,1.71,0,.11-.1.23-.14.35q-.32.75-.66,1.5c-.08.18-.16.35-.25.53q-.42.91-.9,1.83a1.4,1.4,0,0,1-.09.17c-.3.57-.62,1.15-1,1.73l-.28.49c-.38.63-.76,1.27-1.17,1.91a46.72,46.72,0,0,1-11.7,12.55c-1,.76-2.07,1.45-3.11,2.08S30,43.36,29,43.89a47.37,47.37,0,0,1-10.38,3.84c-.25.3-.5.58-.75.87,10.46-1.22,28.77-6.05,40.62-24.51A53.28,53.28,0,0,0,60.86-30.49Z"/><path class="cls-76" d="M-17.18,49.37c-.47-.53-.95-1.07-1.43-1.63A47.41,47.41,0,0,1-26,45.29h0C-16.32,59.76.12,64.64.12,64.64a65.93,65.93,0,0,1-5.58-4.11A143.12,143.12,0,0,1-17.18,49.37Z"/><path class="cls-77" d="M-12.62,13.89C-4.5-1.55,13-2.13,13-2.13A29.42,29.42,0,0,1,14.29,28C6,43.75-11.3,44.05-11.3,44.05S-20.29,28.48-12.62,13.89Zm5.49,2.79C-12.3,26.5-7.3,36.43-7.3,36.43A21.25,21.25,0,0,0,8.88,25.1C14.75,13.94,9,5.35,9,5.35A21.74,21.74,0,0,0-7.13,16.68Z"/><path class="cls-78" d="M-34.22,43.94c20.44-31.81,58.28-29.76,58.28-29.76s19.11,31.23-2.82,65.38C.43,112-37,109.32-37,109.32S-53.52,74-34.22,43.94ZM-22.9,51C-35.9,71.25-27,93.64-27,93.64A46.14,46.14,0,0,0,10.1,72.21c14.76-23,4.07-42.63,4.07-42.63S-9.14,29.6-22.9,51Z"/><path class="cls-79" d="M24.08,14.2l0,0h0c-1,0-31.85-1.3-48.65,24.86C-40.73,64.14-27,93.64-27,93.64s-.31-.79-.74-2.2c-.28-.94-.61-2.16-.93-3.61-.16-.73-.32-1.51-.47-2.34a55.4,55.4,0,0,1-.79-7.13,51.55,51.55,0,0,1,.3-8.49c.14-1.2.33-2.42.58-3.66a44.82,44.82,0,0,1,1.52-5.65A43.22,43.22,0,0,1-22.9,51h0c.38-.59.77-1.17,1.17-1.73l.3-.42c.4-.55.79-1.08,1.2-1.6l.08-.1c.38-.48.77-.94,1.16-1.4.12-.15.25-.29.38-.44.37-.42.75-.84,1.13-1.24l.35-.36c.33-.34.66-.68,1-1l.51-.5.9-.82.82-.71.69-.58q.36-.3.72-.57l.51-.4c.48-.36,1-.7,1.43-1l.31-.22.93-.62,0,0a47.49,47.49,0,0,1,23.45-7.66s5.2,9.56,3.33,23.15c0,.23-.06.46-.1.69s-.09.56-.14.85c-.07.45-.16.9-.25,1.36-.05.24-.11.49-.17.73s-.14.64-.22,1l-.18.73c-.14.51-.28,1-.44,1.54-.06.18-.12.37-.17.55-.14.41-.27.82-.42,1.24L15.2,62c-.21.56-.42,1.13-.66,1.7a3.65,3.65,0,0,1-.14.35c-.21.5-.43,1-.66,1.51l-.24.53c-.29.6-.59,1.21-.91,1.83a1.29,1.29,0,0,1-.09.16c-.3.58-.62,1.15-.95,1.73l-.28.5c-.38.63-.76,1.27-1.17,1.91h0A46.72,46.72,0,0,1-1.6,84.76c-1,.75-2.07,1.45-3.11,2.08s-2.06,1.21-3.08,1.73A47.45,47.45,0,0,1-20.1,92.86c-.75.15-1.46.27-2.11.37a32.07,32.07,0,0,1-4.76.41S4.33,95.83,21.7,68.78A53.28,53.28,0,0,0,24.08,14.2Z"/><path class="cls-80" d="M-14.72,41.4A39.48,39.48,0,0,1,.16,35.52l-.41-2.85S-9.33,36-14.72,41.4Z"/><path class="cls-81" d="M-74.3,44.69C-74.3,1.43-36.6-20-36.6-20S1.11-1.74,1.11,44.69c0,44.05-37.71,64.68-37.71,64.68S-74.3,85.56-74.3,44.69ZM-59,44.5C-59,72-36.6,88.05-36.6,88.05A52.8,52.8,0,0,0-14.16,44.5C-14.16,13.24-36.6,1-36.6,1S-59,15.37-59,44.5Z"/><path class="cls-82" d="M-31.32,105.21A142.9,142.9,0,0,0-19.6,94.06l1.43-1.64A46,46,0,0,0,10.1,72.21c14.76-23,4.07-42.63,4.07-42.63S-9.14,29.6-22.9,51c-6.88,10.72-7.62,22-6.78,30.3a57,57,0,0,1-6.72,6.31l-.84.25a44.89,44.89,0,0,1-6.16-5.13c-.83-11.71.8-25.75,9.18-38.8,20.44-31.81,58.28-29.76,58.28-29.76s19.11,31.23-2.82,65.38c-20.06,31.23-55.6,29.91-58.14,29.77A67.37,67.37,0,0,0-31.32,105.21Z"/><path class="cls-83" d="M24.08,14.2l0,0h0c-1,0-31.85-1.3-48.65,24.86a49.39,49.39,0,0,0-7.48,21.44,67.52,67.52,0,0,1,2,21.27l.42-.44c-.1-1-.18-1.92-.22-3a51.55,51.55,0,0,1,.3-8.49c.14-1.2.33-2.42.58-3.66a44.82,44.82,0,0,1,1.52-5.65A43.22,43.22,0,0,1-22.9,51c.38-.59.77-1.17,1.17-1.73l.3-.42c.4-.55.79-1.08,1.2-1.6l.08-.1c.38-.48.77-.94,1.16-1.4.12-.15.25-.29.38-.44.37-.42.75-.84,1.13-1.24l.35-.36c.33-.34.66-.68,1-1l.51-.5.9-.82.82-.71.69-.58q.36-.3.72-.57l.51-.4c.48-.36,1-.7,1.43-1l.31-.22.93-.62,0,0a42.4,42.4,0,0,1,22.92-7.12s5.73,9,3.86,22.61c0,.23-.06.46-.1.69s-.09.56-.14.85c-.07.45-.16.9-.25,1.36-.05.24-.11.49-.17.73s-.14.64-.22,1l-.18.73c-.14.51-.28,1-.44,1.54-.06.18-.12.37-.17.55-.14.41-.27.82-.42,1.24L15.2,62c-.21.56-.42,1.13-.66,1.7a3.65,3.65,0,0,1-.14.35c-.21.5-.43,1-.66,1.51l-.24.53c-.29.6-.59,1.21-.91,1.83a1.29,1.29,0,0,1-.09.16c-.3.58-.62,1.15-.95,1.73l-.28.5c-.38.63-.76,1.27-1.17,1.91A46.72,46.72,0,0,1-1.6,84.76c-1,.75-2.07,1.45-3.11,2.08s-2.06,1.21-3.08,1.73a46.94,46.94,0,0,1-10.38,3.85l-.75.87C-8.46,92.07,9.85,87.23,21.7,68.78A53.28,53.28,0,0,0,24.08,14.2Z"/><path class="cls-84" d="M110.6,20S73.13,22.58,52.32-9.82C30.39-44,49.49-75.2,49.49-75.2s37.85-2,58.28,29.77C127.08-15.37,110.6,20,110.6,20ZM59.39-59.79s-10.7,19.63,4.07,42.62A46.14,46.14,0,0,0,100.53,4.26s8.93-22.38-4.07-42.62C82.7-59.78,59.39-59.79,59.39-59.79Z"/><path class="cls-85" d="M49.48-75.17v0h0c1,0,31.85-1.29,48.65,24.86,16.12,25.11,2.36,54.6,2.36,54.6s.31-.78.74-2.2c.28-.94.61-2.16.93-3.61.16-.72.32-1.5.47-2.34a55.23,55.23,0,0,0,.79-7.12,51.66,51.66,0,0,0-.3-8.5c-.14-1.2-.33-2.42-.58-3.65a43.93,43.93,0,0,0-1.52-5.65,43.67,43.67,0,0,0-4.6-9.55h0c-.38-.6-.78-1.17-1.17-1.73-.1-.14-.2-.29-.31-.43-.39-.54-.79-1.08-1.19-1.59l-.08-.1c-.38-.48-.77-.95-1.16-1.4-.13-.15-.25-.3-.38-.44-.37-.43-.75-.85-1.13-1.25l-.35-.36c-.33-.34-.66-.67-1-1l-.52-.49c-.29-.28-.6-.56-.9-.83l-.81-.71-.7-.58-.71-.57-.51-.39c-.48-.36-1-.71-1.43-1l-.31-.22-.93-.63h0a47.39,47.39,0,0,0-23.45-7.66,40.54,40.54,0,0,0-3.33,23.14c0,.23.06.46.1.69s.08.57.13.85c.08.45.17.91.26,1.37.05.24.11.49.16.73s.15.64.23,1l.18.72c.14.51.28,1,.44,1.55,0,.18.12.36.17.54.13.42.27.83.42,1.25l.21.6c.2.57.42,1.14.65,1.71l.15.35c.21.5.43,1,.66,1.51l.24.52c.29.61.58,1.22.9,1.83l.09.17c.3.57.62,1.15,1,1.73.09.16.18.33.28.49.37.64.76,1.27,1.17,1.91h0A46.57,46.57,0,0,0,75.16-4.62c1,.76,2.07,1.45,3.1,2.09S80.33-1.32,81.34-.8A47.93,47.93,0,0,0,93.66,3.48c.75.15,1.46.27,2.11.37a32,32,0,0,0,4.76.41s-31.3,2.2-48.67-24.85A53.25,53.25,0,0,1,49.48-75.17Z"/><path class="cls-86" d="M72.82-44.69c0-43.25,37.7-64.68,37.7-64.68s37.7,18.25,37.7,64.68c0,44.05-37.7,64.69-37.7,64.69S72.82-3.81,72.82-44.69Zm15.26-.19c0,27.52,22.44,43.55,22.44,43.55A52.78,52.78,0,0,0,133-44.88c0-31.26-22.44-43.55-22.44-43.55S88.08-74,88.08-44.88Z"/><path class="cls-87" d="M104.88,15.84A141.4,141.4,0,0,1,93.16,4.69c-.48-.53-1-1.08-1.43-1.64A46.06,46.06,0,0,1,63.46-17.17c-14.77-23-4.07-42.62-4.07-42.62s23.31,0,37.07,21.43c6.88,10.72,7.61,22,6.78,30.3A57,57,0,0,0,110-1.75l.84.24A44.09,44.09,0,0,0,117-6.64c.83-11.71-.8-25.74-9.19-38.79C87.34-77.24,49.49-75.2,49.49-75.2S30.39-44,52.32-9.82C72.38,21.41,107.92,20.09,110.45,20,110.08,19.71,108,18.32,104.88,15.84Z"/><path class="cls-88" d="M91.73,3.05A47.51,47.51,0,0,1,81.34-.8c-1-.52-2-1.1-3.08-1.73s-2.07-1.33-3.1-2.09a46.57,46.57,0,0,1-11.7-12.55c-.41-.64-.8-1.27-1.17-1.91-.1-.16-.19-.33-.28-.49-.34-.58-.66-1.16-1-1.73L61-21.47c-.32-.61-.61-1.22-.9-1.83l-.24-.52c-.23-.51-.45-1-.66-1.51L59-25.68c-.23-.57-.45-1.14-.65-1.71l-.21-.6c-.15-.42-.29-.83-.42-1.25,0-.18-.12-.36-.17-.54-.16-.52-.3-1-.44-1.55L56.94-32c-.08-.32-.15-.64-.23-1s-.11-.49-.16-.73c-.09-.46-.18-.92-.26-1.37,0-.28-.09-.56-.13-.85s-.07-.46-.1-.69c-1.87-13.58,3.86-22.61,3.86-22.61a42.38,42.38,0,0,1,22.92,7.13h0l.93.63.31.22c.48.33,1,.68,1.43,1l.51.39.71.57.7.58.81.71c.3.27.61.55.9.83l.52.49c.34.33.67.66,1,1l.35.36c.38.4.76.82,1.13,1.25.13.14.25.29.38.44.39.45.78.92,1.16,1.4l.08.1c.4.51.8,1,1.19,1.59.11.14.21.29.31.43.39.56.79,1.13,1.17,1.73a43.67,43.67,0,0,1,4.6,9.55,43.93,43.93,0,0,1,1.52,5.65c.25,1.23.44,2.45.58,3.65a51.66,51.66,0,0,1,.3,8.5c0,1-.13,2-.22,2.95l1,1c2.52-10.88,3.86-27.91-6-43.29C81.37-76.49,50.48-75.24,49.52-75.2h0v0a53.25,53.25,0,0,0,2.38,54.58C63.71-2.14,82,2.7,92.47,3.91Z"/><path class="cls-89" d="M39.34-45.43C59.77-77.24,97.62-75.2,97.62-75.2S116.73-44,94.79-9.82C74,22.58,36.51,20,36.51,20S20-15.37,39.34-45.43Zm11.32,7.07c-13,20.24-4.07,42.62-4.07,42.62A46.14,46.14,0,0,0,83.66-17.17c14.76-23,4.07-42.62,4.07-42.62S64.41-59.78,50.66-38.36Z"/><path class="cls-90" d="M97.63-75.17v0h0c-1,0-31.85-1.29-48.65,24.86-16.13,25.11-2.36,54.6-2.36,54.6s-.32-.78-.74-2.2c-.28-.94-.62-2.16-.94-3.61-.16-.72-.31-1.5-.46-2.34a56.94,56.94,0,0,1-.8-7.12,51.66,51.66,0,0,1,.3-8.5c.15-1.2.34-2.42.59-3.65a45.55,45.55,0,0,1,1.51-5.65,43.72,43.72,0,0,1,4.61-9.55h0c.38-.6.77-1.17,1.17-1.73l.3-.43c.39-.54.79-1.08,1.2-1.59a.39.39,0,0,1,.08-.1c.38-.48.77-.95,1.16-1.4l.37-.44c.38-.43.76-.85,1.14-1.25l.34-.36,1-1,.52-.49.9-.83.82-.71.69-.58.72-.57.51-.39c.47-.36,1-.71,1.42-1l.32-.22.93-.63h0a47.37,47.37,0,0,1,23.45-7.66,40.64,40.64,0,0,1,3.33,23.14c0,.23-.07.46-.1.69s-.09.57-.14.85c-.08.45-.16.91-.26,1.37,0,.24-.1.49-.16.73s-.14.64-.22,1-.12.48-.19.72c-.13.51-.28,1-.43,1.55l-.18.54c-.13.42-.26.83-.41,1.25l-.21.6c-.21.57-.42,1.14-.66,1.71,0,.12-.1.23-.15.35-.2.5-.42,1-.65,1.51-.08.17-.16.35-.25.52q-.42.91-.9,1.83l-.09.17c-.3.57-.62,1.15-1,1.73l-.29.49c-.37.64-.75,1.27-1.16,1.91h0A46.57,46.57,0,0,1,72-4.62c-1,.76-2.07,1.45-3.11,2.09S66.79-1.32,65.77-.8A47.88,47.88,0,0,1,53.46,3.48c-.76.15-1.46.27-2.11.37a32.07,32.07,0,0,1-4.76.41s31.29,2.2,48.67-24.85A53.23,53.23,0,0,0,97.63-75.17Z"/><path class="cls-91" d="M54,4.69l1.43-1.64A47.76,47.76,0,0,0,62.77.6h0C53.1,15.07,36.66,20,36.66,20c.38-.25,2.51-1.64,5.58-4.12A144.62,144.62,0,0,0,54,4.69Z"/><path class="cls-92" d="M37,20S-.43,22.58-21.24-9.82C-43.17-44-24.06-75.2-24.06-75.2s37.84-2,58.28,29.77C53.52-15.37,37,20,37,20ZM-14.17-59.79s-10.7,19.63,4.07,42.62A46.14,46.14,0,0,0,27,4.26S35.9-18.12,22.9-38.36C9.14-59.78-14.17-59.79-14.17-59.79Z"/><path class="cls-93" d="M-24.08-75.17l0,0h0c1,0,31.85-1.29,48.65,24.86C40.73-25.23,27,4.26,27,4.26s.31-.78.74-2.2c.28-.94.61-2.16.93-3.61.16-.72.32-1.5.47-2.34A55.23,55.23,0,0,0,29.9-11a51.66,51.66,0,0,0-.3-8.5c-.14-1.2-.33-2.42-.58-3.65a43.93,43.93,0,0,0-1.52-5.65,43.22,43.22,0,0,0-4.6-9.55h0c-.38-.6-.77-1.17-1.17-1.73l-.3-.43c-.4-.54-.79-1.08-1.2-1.59l-.08-.1c-.38-.48-.77-.95-1.16-1.4-.12-.15-.25-.3-.38-.44-.37-.43-.75-.85-1.13-1.25l-.35-.36c-.33-.34-.66-.67-1-1l-.51-.49c-.3-.28-.6-.56-.91-.83l-.81-.71-.69-.58-.72-.57L12-50.23c-.48-.36-1-.71-1.43-1l-.31-.22-.93-.63h0a47.37,47.37,0,0,0-23.45-7.66A40.54,40.54,0,0,0-17.5-36.65c0,.23.06.46.1.69s.09.57.14.85c.07.45.16.91.25,1.37.05.24.11.49.17.73s.14.64.22,1l.18.72c.14.51.28,1,.44,1.55.06.18.12.36.17.54.14.42.27.83.42,1.25l.21.6c.21.57.42,1.14.66,1.71,0,.12.09.23.14.35.21.5.43,1,.66,1.51l.24.52q.43.91.9,1.83l.1.17c.3.57.62,1.15.95,1.73l.28.49c.38.64.76,1.27,1.17,1.91h0A46.57,46.57,0,0,0,1.6-4.62c1,.76,2.07,1.45,3.11,2.09S6.77-1.32,7.79-.8A47.75,47.75,0,0,0,20.1,3.48c.75.15,1.46.27,2.11.37A32.07,32.07,0,0,0,27,4.26S-4.33,6.46-21.7-20.59A53.27,53.27,0,0,1-24.08-75.17Z"/><path class="cls-94" d="M-.74-44.69c0-43.25,37.7-64.68,37.7-64.68s37.7,18.25,37.7,64.68C74.66-.64,37,20,37,20S-.74-3.81-.74-44.69Zm15.27-.19C14.53-17.36,37-1.33,37-1.33A52.78,52.78,0,0,0,59.4-44.88C59.4-76.14,37-88.43,37-88.43S14.53-74,14.53-44.88Z"/><path class="cls-95" d="M42.24,15.84A144.62,144.62,0,0,0,54,4.69l1.43-1.64A46.08,46.08,0,0,0,83.66-17.17c14.76-23,4.07-42.62,4.07-42.62s-23.32,0-37.07,21.43c-6.89,10.72-7.62,22-6.78,30.3a56,56,0,0,1-6.73,6.31l-.83.24a44.09,44.09,0,0,1-6.16-5.13c-.83-11.71.8-25.74,9.18-38.79C59.77-77.24,97.62-75.2,97.62-75.2S116.73-44,94.79-9.82C74.74,21.41,39.2,20.09,36.66,20,37,19.71,39.17,18.32,42.24,15.84Z"/><path class="cls-96" d="M31.32,15.84A144.62,144.62,0,0,1,19.6,4.69L18.17,3.05A46.06,46.06,0,0,1-10.1-17.17c-14.77-23-4.07-42.62-4.07-42.62s23.31,0,37.07,21.43c6.88,10.72,7.62,22,6.78,30.3A57,57,0,0,0,36.4-1.75l.84.24A44.09,44.09,0,0,0,43.4-6.64c.83-11.71-.8-25.74-9.18-38.79C13.78-77.24-24.06-75.2-24.06-75.2S-43.17-44-21.24-9.82C-1.18,21.41,34.36,20.09,36.9,20,36.52,19.71,34.39,18.32,31.32,15.84Z"/><path class="cls-97" d="M97.63-75.17v0h0c-1,0-31.85-1.29-48.65,24.86A49.39,49.39,0,0,0,41.47-28.9a67.61,67.61,0,0,1,2,21.28l.42-.44C43.78-9,43.7-10,43.65-11a51.66,51.66,0,0,1,.3-8.5c.15-1.2.34-2.42.59-3.65a45.55,45.55,0,0,1,1.51-5.65,43.72,43.72,0,0,1,4.61-9.55c.38-.6.77-1.17,1.17-1.73l.3-.43c.39-.54.79-1.08,1.2-1.59a.39.39,0,0,1,.08-.1c.38-.48.77-.95,1.16-1.4l.37-.44c.38-.43.76-.85,1.14-1.25l.34-.36,1-1,.52-.49.9-.83.82-.71.69-.58.72-.57.51-.39c.47-.36,1-.71,1.42-1l.32-.22.93-.63h0A42.36,42.36,0,0,1,87.2-59.26s5.72,9,3.86,22.61c0,.23-.07.46-.1.69s-.09.57-.14.85c-.08.45-.16.91-.26,1.37,0,.24-.1.49-.16.73s-.14.64-.22,1-.12.48-.19.72c-.13.52-.28,1-.43,1.55l-.18.54c-.13.42-.26.83-.41,1.25l-.21.6c-.21.57-.42,1.14-.66,1.71,0,.12-.1.23-.15.35-.2.5-.42,1-.65,1.51-.08.17-.16.35-.25.52q-.42.91-.9,1.83l-.09.17c-.3.57-.62,1.15-1,1.73l-.29.49c-.37.64-.75,1.27-1.16,1.91A46.57,46.57,0,0,1,72-4.62c-1,.76-2.07,1.45-3.11,2.09S66.79-1.32,65.77-.8A47.45,47.45,0,0,1,55.39,3.05l-.75.86C65.1,2.7,83.41-2.14,95.26-20.59A53.23,53.23,0,0,0,97.63-75.17Z"/><path class="cls-98" d="M19.6,4.69,18.17,3.05A47.41,47.41,0,0,1,10.79.6h0C20.46,15.07,36.9,20,36.9,20c-.38-.25-2.51-1.64-5.58-4.12A144.62,144.62,0,0,1,19.6,4.69Z"/><path class="cls-99" d="M18.17,3.05A47.45,47.45,0,0,1,7.79-.8c-1-.52-2-1.1-3.08-1.73S2.64-3.86,1.6-4.62A46.57,46.57,0,0,1-10.1-17.17c-.41-.64-.79-1.27-1.17-1.91l-.28-.49c-.33-.58-.65-1.16-.95-1.73l-.1-.17q-.47-.91-.9-1.83l-.24-.52c-.23-.51-.45-1-.66-1.51,0-.12-.1-.23-.14-.35-.24-.57-.45-1.14-.66-1.71l-.21-.6c-.15-.42-.28-.83-.42-1.25-.05-.18-.11-.36-.17-.54-.16-.52-.3-1-.44-1.55l-.18-.72c-.08-.32-.15-.64-.22-1s-.12-.49-.17-.73c-.09-.46-.18-.92-.25-1.37,0-.28-.1-.56-.14-.85s-.07-.46-.1-.69c-1.87-13.58,3.86-22.61,3.86-22.61A42.36,42.36,0,0,1,9.28-52.13h0l.93.63.31.22c.48.33.95.68,1.43,1l.51.39.72.57.69.58.81.71c.31.27.61.55.91.83l.51.49c.34.33.67.66,1,1l.35.36c.38.4.76.82,1.13,1.25.13.14.26.29.38.44.39.45.78.92,1.16,1.4l.08.1c.41.51.8,1,1.2,1.59l.3.43c.4.56.79,1.13,1.17,1.73a43.22,43.22,0,0,1,4.6,9.55A43.93,43.93,0,0,1,29-23.16c.25,1.23.44,2.45.58,3.65a51.66,51.66,0,0,1,.3,8.5c0,1-.12,2-.22,2.95l.95,1c2.52-10.88,3.86-27.91-6-43.29C7.81-76.49-23.08-75.24-24-75.2h0l0,0A53.27,53.27,0,0,0-21.7-20.59C-9.85-2.14,8.46,2.7,18.92,3.91Z"/><path class="cls-100" d="M-34.22-45.43C-13.78-77.24,24.06-75.2,24.06-75.2S43.17-44,21.24-9.82C.43,22.58-37,20-37,20S-53.52-15.37-34.22-45.43Zm11.32,7.07C-35.9-18.12-27,4.26-27,4.26A46.14,46.14,0,0,0,10.1-17.17c14.76-23,4.07-42.62,4.07-42.62S-9.14-59.78-22.9-38.36Z"/><path class="cls-101" d="M24.08-75.17l0,0h0c-1,0-31.85-1.29-48.65,24.86C-40.73-25.23-27,4.26-27,4.26s-.31-.78-.74-2.2c-.28-.94-.61-2.16-.93-3.61-.16-.72-.32-1.5-.47-2.34A55.23,55.23,0,0,1-29.9-11a51.66,51.66,0,0,1,.3-8.5c.14-1.2.33-2.42.58-3.65a43.93,43.93,0,0,1,1.52-5.65,43.22,43.22,0,0,1,4.6-9.55h0c.38-.6.77-1.17,1.17-1.73l.3-.43c.4-.54.79-1.08,1.2-1.59l.08-.1c.38-.48.77-.95,1.16-1.4.12-.15.25-.3.38-.44.37-.43.75-.85,1.13-1.25l.35-.36c.33-.34.66-.67,1-1l.51-.49.9-.83.82-.71.69-.58.72-.57.51-.39c.48-.36,1-.71,1.43-1l.31-.22.93-.63h0a47.37,47.37,0,0,1,23.45-7.66A40.54,40.54,0,0,1,17.5-36.65c0,.23-.06.46-.1.69s-.09.57-.14.85c-.07.45-.16.91-.25,1.37-.05.24-.11.49-.17.73s-.14.64-.22,1l-.18.72c-.14.51-.28,1-.44,1.55-.06.18-.12.36-.17.54-.14.42-.27.83-.42,1.25l-.21.6c-.21.57-.42,1.14-.66,1.71,0,.12-.09.23-.14.35-.21.5-.43,1-.66,1.51l-.24.52c-.29.61-.59,1.22-.91,1.83a1.4,1.4,0,0,1-.09.17c-.3.57-.62,1.15-.95,1.73l-.28.49c-.38.64-.76,1.27-1.17,1.91h0A46.57,46.57,0,0,1-1.6-4.62c-1,.76-2.07,1.45-3.11,2.09S-6.77-1.32-7.79-.8A47.75,47.75,0,0,1-20.1,3.48c-.75.15-1.46.27-2.11.37A32.07,32.07,0,0,1-27,4.26S4.33,6.46,21.7-20.59A53.27,53.27,0,0,0,24.08-75.17Z"/><path class="cls-102" d="M-74.3-44.69c0-43.25,37.7-64.68,37.7-64.68S1.11-91.12,1.11-44.69C1.11-.64-36.6,20-36.6,20S-74.3-3.81-74.3-44.69ZM-59-44.88C-59-17.36-36.6-1.33-36.6-1.33A52.78,52.78,0,0,0-14.16-44.88c0-31.26-22.44-43.55-22.44-43.55S-59-74-59-44.88Z"/><path class="cls-103" d="M-31.32,15.84A144.62,144.62,0,0,0-19.6,4.69l1.43-1.64A46.06,46.06,0,0,0,10.1-17.17c14.76-23,4.07-42.62,4.07-42.62s-23.31,0-37.07,21.43c-6.88,10.72-7.62,22-6.78,30.3A57,57,0,0,1-36.4-1.75l-.84.24A44.09,44.09,0,0,1-43.4-6.64c-.83-11.71.8-25.74,9.18-38.79C-13.78-77.24,24.06-75.2,24.06-75.2S43.17-44,21.24-9.82C1.18,21.41-34.36,20.09-36.9,20-36.52,19.71-34.39,18.32-31.32,15.84Z"/><path class="cls-104" d="M24.08-75.17l0,0h0c-1,0-31.85-1.29-48.65,24.86A49.39,49.39,0,0,0-32.09-28.9a67.61,67.61,0,0,1,2,21.28l.42-.44C-29.78-9-29.86-10-29.9-11a51.66,51.66,0,0,1,.3-8.5c.14-1.2.33-2.42.58-3.65a43.93,43.93,0,0,1,1.52-5.65,43.22,43.22,0,0,1,4.6-9.55c.38-.6.77-1.17,1.17-1.73l.3-.43c.4-.54.79-1.08,1.2-1.59l.08-.1c.38-.48.77-.95,1.16-1.4.12-.15.25-.3.38-.44.37-.43.75-.85,1.13-1.25l.35-.36c.33-.34.66-.67,1-1l.51-.49.9-.83.82-.71.69-.58.72-.57.51-.39c.48-.36,1-.71,1.43-1l.31-.22.93-.63h0a42.36,42.36,0,0,1,22.92-7.13s5.73,9,3.86,22.61c0,.23-.06.46-.1.69s-.09.57-.14.85c-.07.45-.16.91-.25,1.37-.05.24-.11.49-.17.73s-.14.64-.22,1l-.18.72c-.14.52-.28,1-.44,1.55-.06.18-.12.36-.17.54-.14.42-.27.83-.42,1.25l-.21.6c-.21.57-.42,1.14-.66,1.71,0,.12-.09.23-.14.35-.21.5-.43,1-.66,1.51l-.24.52c-.29.61-.59,1.22-.91,1.83a1.4,1.4,0,0,1-.09.17c-.3.57-.62,1.15-.95,1.73l-.28.49c-.38.64-.76,1.27-1.17,1.91A46.57,46.57,0,0,1-1.6-4.62c-1,.76-2.07,1.45-3.11,2.09S-6.77-1.32-7.79-.8A47.45,47.45,0,0,1-18.17,3.05l-.75.86C-8.46,2.7,9.85-2.14,21.7-20.59A53.27,53.27,0,0,0,24.08-75.17Z"/></pattern></defs><g class="cls-105"><g id="Layer_2" data-name="Layer 2"><g id="Layer_1-2" data-name="Layer 1"><path class="cls-106" d="M92.67,63.12s17.07-.29,25.22-15.78a29,29,0,0,0-1.3-29.73s-17.22.57-25.22,15.78C83.81,47.77,92.67,63.12,92.67,63.12Zm20-38.14s5.61,8.47-.17,19.47A21,21,0,0,1,96.61,55.61s-4.93-9.78.16-19.46A21.46,21.46,0,0,1,112.72,25Z"/><path class="cls-107" d="M45.76,33.39c-8-15.21-25.22-15.78-25.22-15.78a29,29,0,0,0-1.3,29.73c8.14,15.49,25.22,15.78,25.22,15.78S53.31,47.77,45.76,33.39Zm-5.41,2.76c5.09,9.68.16,19.46.16,19.46A21,21,0,0,1,24.57,44.45c-5.78-11-.16-19.47-.16-19.47A21.44,21.44,0,0,1,40.35,36.15Z"/><path class="cls-108" d="M67.3,127.44s36.93,2.6,57.43-29.33c21.61-33.65,2.79-64.43,2.79-64.43s-37.3-2-57.44,29.33C51.06,92.64,67.3,127.44,67.3,127.44Zm50.47-78.58s10.54,19.35-4,42A45.5,45.5,0,0,1,77.22,112s-8.79-22.06,4-42C94.79,48.87,117.77,48.86,117.77,48.86Z"/><path class="cls-109" d="M127.53,33.7v0h0c-1,0-31.4-1.27-47.95,24.5C63.66,82.92,77.22,112,77.22,112s-.31-.78-.72-2.17c-.28-.93-.61-2.13-.93-3.56-.15-.71-.31-1.48-.45-2.31a53.57,53.57,0,0,1-.79-7,50.16,50.16,0,0,1,.3-8.37c.14-1.18.33-2.38.58-3.6a43.17,43.17,0,0,1,6-15h0c.37-.59.76-1.15,1.15-1.7l.3-.42c.39-.54.78-1.07,1.18-1.58l.07-.09c.38-.48.76-.94,1.15-1.39.12-.14.25-.28.37-.43.37-.42.74-.83,1.12-1.23l.34-.35c.33-.33.65-.66,1-1l.51-.49.89-.82.81-.69c.22-.2.45-.39.68-.58l.7-.56.51-.38c.47-.36.93-.7,1.4-1l.31-.22.92-.61,0,0a46.8,46.8,0,0,1,23.11-7.55,40,40,0,0,1,3.28,22.81c0,.23-.06.45-.1.68s-.08.56-.13.84c-.08.44-.16.89-.26,1.34,0,.24-.1.48-.16.72s-.14.63-.22,1l-.18.71c-.13.51-.28,1-.43,1.53,0,.17-.11.35-.17.53-.13.41-.27.82-.41,1.23l-.21.6c-.2.55-.41,1.11-.64,1.68l-.15.34c-.2.49-.42,1-.65,1.49l-.24.52c-.28.59-.57,1.2-.88,1.8l-.09.16c-.3.57-.61,1.14-.94,1.71-.09.16-.19.32-.28.49-.37.62-.75,1.25-1.15,1.88h0a46.17,46.17,0,0,1-11.54,12.37c-1,.74-2,1.43-3,2.05s-2,1.19-3,1.71A47,47,0,0,1,84,111.22c-.75.14-1.44.26-2.09.36a31.09,31.09,0,0,1-4.69.41s30.85,2.16,48-24.5A52.48,52.48,0,0,0,127.53,33.7Z"/><path class="cls-110" d="M86.36,45.65a54.74,54.74,0,0,1,12-10.57l1.53,3.69S90.5,43,86.36,45.65Z"/><path class="cls-111" d="M84.49,112.4c.47-.52.94-1.06,1.4-1.61a46.75,46.75,0,0,0,7.28-2.41h0c-9.54,14.26-25.74,19.07-25.74,19.07a66.65,66.65,0,0,0,5.5-4A140.8,140.8,0,0,0,84.49,112.4Z"/><path class="cls-112" d="M89.3,60.5A39,39,0,0,1,104,54.71l-.41-2.81S94.61,55.23,89.3,60.5Z"/><path class="cls-113" d="M65,63C44.9,31.66,7.6,33.68,7.6,33.68s-18.83,30.78,2.79,64.43c20.5,31.93,57.43,29.33,57.43,29.33S84.06,92.64,65,63ZM53.88,70c12.81,20,4,42,4,42A45.49,45.49,0,0,1,21.36,90.87c-14.55-22.66-4-42-4-42S40.32,48.87,53.88,70Z"/><path class="cls-114" d="M7.59,33.7v0h0c1,0,31.39-1.27,47.94,24.5C71.45,82.92,57.89,112,57.89,112s.31-.78.73-2.17c.28-.93.61-2.13.92-3.56.16-.71.32-1.48.46-2.31a55.45,55.45,0,0,0,.78-7,51.2,51.2,0,0,0-.29-8.37c-.14-1.18-.33-2.38-.58-3.6a43.17,43.17,0,0,0-6-15h0c-.38-.59-.76-1.15-1.15-1.7l-.3-.42c-.39-.54-.78-1.07-1.18-1.58l-.08-.09c-.37-.48-.76-.94-1.14-1.39-.13-.14-.25-.28-.37-.43-.37-.42-.75-.83-1.12-1.23-.12-.11-.23-.23-.34-.35l-1-1-.51-.49c-.29-.28-.59-.55-.89-.82s-.53-.47-.8-.69l-.68-.58-.71-.56-.5-.38c-.47-.36-.94-.7-1.41-1L41.4,57l-.91-.61,0,0a46.83,46.83,0,0,0-23.11-7.55,40,40,0,0,0-3.28,22.81c0,.23.06.45.1.68s.08.56.13.84c.08.44.16.89.25,1.34,0,.24.11.48.16.72s.15.63.23,1,.11.48.18.71c.13.51.27,1,.43,1.53,0,.17.11.35.17.53.13.41.26.82.4,1.23.07.2.14.4.22.6.2.55.41,1.11.64,1.68l.15.34c.2.49.42,1,.64,1.49l.24.52c.28.59.58,1.2.89,1.8l.09.16c.3.57.61,1.14.94,1.71.09.16.19.32.28.49.37.62.75,1.25,1.15,1.88h0a46.14,46.14,0,0,0,11.53,12.37c1,.74,2,1.43,3.06,2.05s2,1.19,3,1.71a47,47,0,0,0,12.13,4.22c.74.14,1.44.26,2.08.36a31.09,31.09,0,0,0,4.69.41s-30.84,2.16-48-24.5A52.48,52.48,0,0,1,7.59,33.7Z"/><path class="cls-115" d="M67.74,127.5s37.15-20.34,37.15-63.75C104.89,18,67.74,0,67.74,0S30.59,21.12,30.59,63.75C30.59,104,67.74,127.5,67.74,127.5Zm0-106.86S89.85,32.75,89.85,63.56a52,52,0,0,1-22.11,42.92S45.63,90.68,45.63,63.56C45.63,34.86,67.74,20.64,67.74,20.64Z"/><path class="cls-116" d="M67.76,0h0c-.94.55-31,18.18-31,53.23,0,33.64,31,53.24,31,53.24s-.78-.56-2-1.64c-.84-.72-1.9-1.68-3.09-2.85-.59-.59-1.22-1.24-1.87-1.94a62,62,0,0,1-5.09-6.28,57.45,57.45,0,0,1-4.89-8.24c-.6-1.22-1.16-2.5-1.68-3.82a53,53,0,0,1-2-6.28,49.16,49.16,0,0,1-1.45-11.87h0c0-.8,0-1.58.06-2.36,0-.19,0-.39,0-.58,0-.76.1-1.51.17-2.25,0,0,0-.09,0-.14.07-.69.15-1.36.25-2l.09-.64c.1-.63.2-1.26.32-1.88,0-.18.07-.36.11-.54q.15-.8.33-1.56c.06-.27.13-.53.19-.79.11-.45.23-.89.35-1.33s.23-.78.35-1.17l.3-1,.33-1c.08-.23.16-.46.25-.68q.35-.94.72-1.86c.05-.13.1-.27.16-.4.16-.39.33-.78.5-1.16l0,0A53.45,53.45,0,0,1,67.74,20.64S78.49,26.55,85,40.57l.33.72c.13.29.26.58.38.88.2.48.4,1,.59,1.46.1.26.2.52.29.79s.25.69.37,1l.27.8c.18.56.36,1.14.53,1.73.06.2.11.41.17.62.12.47.25,1,.36,1.43.06.24.12.47.17.71q.23,1,.42,2c0,.14.05.29.07.43.11.6.21,1.21.29,1.83,0,.21.07.43.1.64.09.75.18,1.51.26,2.29,0,.07,0,.14,0,.21.07.73.11,1.47.15,2.22l0,.65c0,.83.06,1.66.06,2.52h0a52.45,52.45,0,0,1-3.46,19c-.51,1.35-1.08,2.64-1.67,3.87S83.5,88.87,82.85,90a53.27,53.27,0,0,1-9.07,11.57c-.62.6-1.22,1.15-1.78,1.64a36.66,36.66,0,0,1-4.26,3.29s31-17,31-53.24A60,60,0,0,0,67.76,0Z"/><path class="cls-117" d="M72.94,123.4a140.8,140.8,0,0,0,11.55-11c.47-.52.94-1.06,1.4-1.61a45.37,45.37,0,0,0,27.87-19.92c14.55-22.66,4-42,4-42s-23,0-36.53,21.12c-6.79,10.56-7.51,21.71-6.69,29.86a55.71,55.71,0,0,1-6.62,6.22l-.82.24A43.21,43.21,0,0,1,61,101.24c-.82-11.54.79-25.37,9-38.23,20.14-31.35,57.44-29.33,57.44-29.33s18.82,30.78-2.79,64.43C105,128.89,69.94,127.59,67.44,127.45A66.65,66.65,0,0,0,72.94,123.4Z"/><path class="cls-118" d="M48.76,45.65a55,55,0,0,0-12-10.57l-1.53,3.69S44.62,43,48.76,45.65Z"/><path class="cls-119" d="M62.18,123.4a140.8,140.8,0,0,1-11.55-11c-.47-.52-.94-1.06-1.41-1.61A45.38,45.38,0,0,1,21.36,90.87c-14.55-22.66-4-42-4-42s23,0,36.53,21.12c6.78,10.56,7.51,21.71,6.68,29.86a56.34,56.34,0,0,0,6.63,6.22l.82.24a42.76,42.76,0,0,0,6.07-5.06C74.9,89.7,73.29,75.87,65,63,44.9,31.66,7.6,33.68,7.6,33.68s-18.83,30.78,2.79,64.43c19.76,30.78,54.78,29.48,57.28,29.34C67.3,127.21,65.21,125.84,62.18,123.4Z"/><path class="cls-120" d="M127.53,33.7v0h0c-1,0-31.4-1.27-47.95,24.5a48.75,48.75,0,0,0-7.37,21.13,67.09,67.09,0,0,1,2,21l.4-.44c-.09-.93-.17-1.9-.22-2.91a50.16,50.16,0,0,1,.3-8.37c.14-1.18.33-2.38.58-3.6a43.17,43.17,0,0,1,6-15c.37-.59.76-1.15,1.15-1.7l.3-.42c.39-.54.78-1.07,1.18-1.58l.07-.09c.38-.48.76-.94,1.15-1.39.12-.14.25-.28.37-.43.37-.42.74-.83,1.12-1.23l.34-.35c.33-.33.65-.66,1-1l.51-.49.89-.82.81-.69c.22-.2.45-.39.68-.58l.7-.56.51-.38c.47-.36.93-.7,1.4-1l.31-.22.92-.61,0,0a41.78,41.78,0,0,1,22.58-7s5.65,8.89,3.81,22.28c0,.23-.06.45-.1.68s-.08.56-.13.84c-.08.44-.16.89-.26,1.34,0,.24-.1.48-.16.72s-.14.63-.22,1l-.18.71c-.13.51-.28,1-.43,1.53,0,.17-.11.35-.17.53-.13.41-.27.82-.41,1.23l-.21.6c-.2.55-.41,1.11-.64,1.68l-.15.34c-.2.49-.42,1-.65,1.49l-.24.52c-.28.59-.57,1.2-.88,1.8l-.09.16c-.3.57-.61,1.14-.94,1.71-.09.16-.19.32-.28.49-.37.62-.75,1.25-1.15,1.88a46.17,46.17,0,0,1-11.54,12.37c-1,.74-2,1.43-3,2.05s-2,1.19-3,1.71a46.88,46.88,0,0,1-10.23,3.79l-.74.85c10.3-1.2,28.35-6,40-24.15A52.48,52.48,0,0,0,127.53,33.7Z"/><path class="cls-121" d="M50.63,112.4c-.47-.52-.94-1.06-1.41-1.61a47.1,47.1,0,0,1-7.28-2.41h0c9.53,14.26,25.73,19.07,25.73,19.07-.37-.24-2.46-1.61-5.49-4A140.8,140.8,0,0,1,50.63,112.4Z"/><path class="cls-122" d="M49.22,110.79A46.88,46.88,0,0,1,39,107c-1-.52-2-1.08-3-1.71s-2-1.31-3.06-2.05A46.14,46.14,0,0,1,21.36,90.87c-.4-.63-.78-1.26-1.15-1.88l-.28-.49c-.33-.57-.64-1.14-.94-1.71l-.09-.16c-.31-.6-.61-1.21-.89-1.8l-.24-.52c-.22-.5-.44-1-.64-1.49L17,82.48c-.23-.57-.44-1.13-.64-1.68-.08-.2-.15-.4-.22-.6-.14-.41-.27-.82-.4-1.23-.06-.18-.12-.36-.17-.53-.16-.52-.3-1-.43-1.53-.07-.23-.12-.47-.18-.71s-.16-.63-.23-1-.11-.48-.16-.72c-.09-.45-.17-.9-.25-1.34-.05-.28-.09-.56-.13-.84s-.07-.45-.1-.68c-1.84-13.39,3.8-22.28,3.8-22.28a41.82,41.82,0,0,1,22.59,7l0,0,.91.61.31.22c.47.33.94.67,1.41,1l.5.38.71.56.68.58c.27.22.54.46.8.69s.6.54.89.82l.51.49,1,1c.11.12.22.24.34.35.37.4.75.81,1.12,1.23.12.15.24.29.37.43.38.45.77.91,1.14,1.39l.08.09c.4.51.79,1,1.18,1.58l.3.42c.39.55.77,1.11,1.15,1.7a43.17,43.17,0,0,1,6,15c.25,1.22.44,2.42.58,3.6a51.2,51.2,0,0,1,.29,8.37c0,1-.12,2-.22,2.91l.94,1c2.48-10.73,3.8-27.5-5.94-42.66C39,32.41,8.57,33.64,7.62,33.68h0v0A52.48,52.48,0,0,0,9.93,87.49c11.68,18.19,29.72,23,40,24.15C49.71,111.36,49.46,111.08,49.22,110.79Z"/><path class="cls-123" d="M45.81,60.5a38.88,38.88,0,0,0-14.65-5.79l.4-2.81S40.5,55.23,45.81,60.5Z"/><text class="cls-124" transform="translate(141.59 75.09)">C<tspan class="cls-125" x="63.47" y="0">L</tspan><tspan class="cls-126" x="116.42" y="0">C</tspan><tspan x="179.74" y="0">2</tspan></text><text class="cls-127" transform="translate(146.08 98.23) scale(1.1 1)">C<tspan class="cls-128" x="7.98" y="0">ORPOR</tspan><tspan class="cls-129" x="50.97" y="0">A</tspan><tspan class="cls-130" x="58.97" y="0">TE LEADERS </tspan><tspan x="135.64" y="0">C</tspan><tspan class="cls-128" x="143.62" y="0">ONC</tspan><tspan class="cls-131" x="169.96" y="0">L</tspan><tspan class="cls-132" x="176.88" y="0">A</tspan><tspan x="184.87" y="0">V</tspan><tspan class="cls-128" x="192.87" y="0">E</tspan><tspan class="cls-133"><tspan x="0" y="11.8">2</tspan><tspan class="cls-134" x="6.68" y="11.8">0</tspan><tspan class="cls-130" x="14.23" y="11.8">23</tspan></tspan></text></g></g></g></svg>